<?xml version="1.0" encoding="utf-8" standalone="no"?>
<!DOCTYPE svg PUBLIC "-//W3C//DTD SVG 1.1//EN"
  "http://www.w3.org/Graphics/SVG/1.1/DTD/svg11.dtd">
<svg xmlns:xlink="http://www.w3.org/1999/xlink" width="720pt" height="720pt" viewBox="0 0 720 720" xmlns="http://www.w3.org/2000/svg" version="1.1">
 <metadata>
  <rdf:RDF xmlns:dc="http://purl.org/dc/elements/1.1/" xmlns:cc="http://creativecommons.org/ns#" xmlns:rdf="http://www.w3.org/1999/02/22-rdf-syntax-ns#">
   <cc:Work>
    <dc:type rdf:resource="http://purl.org/dc/dcmitype/StillImage"/>
    <dc:date>2025-03-20T16:24:07.383775</dc:date>
    <dc:format>image/svg+xml</dc:format>
    <dc:creator>
     <cc:Agent>
      <dc:title>Matplotlib v3.10.1, https://matplotlib.org/</dc:title>
     </cc:Agent>
    </dc:creator>
   </cc:Work>
  </rdf:RDF>
 </metadata>
 <defs>
  <style type="text/css">*{stroke-linejoin: round; stroke-linecap: butt}</style>
 </defs>
 <g id="figure_1">
  <g id="patch_1">
   <path d="M 0 720 
L 720 720 
L 720 0 
L 0 0 
z
" style="fill: #ffffff"/>
  </g>
  <g id="axes_1">
   <g id="patch_2">
    <path d="M 90 620.717726 
L 648 620.717726 
L 648 106.482274 
L 90 106.482274 
z
" style="fill: #ffffff"/>
   </g>
   <g id="matplotlib.axis_1">
    <g id="xtick_1">
     <g id="line2d_1">
      <defs>
       <path id="m2570a8b29c" d="M 0 0 
L 0 3.5 
" style="stroke: #000000; stroke-width: 0.8"/>
      </defs>
      <g>
       <use xlink:href="#m2570a8b29c" x="170.069239" y="620.717726" style="stroke: #000000; stroke-width: 0.8"/>
      </g>
     </g>
     <g id="text_1">
      <!-- −40 -->
      <g transform="translate(159.516896 635.316164) scale(0.1 -0.1)">
       <defs>
        <path id="DejaVuSans-2212" d="M 678 2272 
L 4684 2272 
L 4684 1741 
L 678 1741 
L 678 2272 
z
" transform="scale(0.015625)"/>
        <path id="DejaVuSans-34" d="M 2419 4116 
L 825 1625 
L 2419 1625 
L 2419 4116 
z
M 2253 4666 
L 3047 4666 
L 3047 1625 
L 3713 1625 
L 3713 1100 
L 3047 1100 
L 3047 0 
L 2419 0 
L 2419 1100 
L 313 1100 
L 313 1709 
L 2253 4666 
z
" transform="scale(0.015625)"/>
        <path id="DejaVuSans-30" d="M 2034 4250 
Q 1547 4250 1301 3770 
Q 1056 3291 1056 2328 
Q 1056 1369 1301 889 
Q 1547 409 2034 409 
Q 2525 409 2770 889 
Q 3016 1369 3016 2328 
Q 3016 3291 2770 3770 
Q 2525 4250 2034 4250 
z
M 2034 4750 
Q 2819 4750 3233 4129 
Q 3647 3509 3647 2328 
Q 3647 1150 3233 529 
Q 2819 -91 2034 -91 
Q 1250 -91 836 529 
Q 422 1150 422 2328 
Q 422 3509 836 4129 
Q 1250 4750 2034 4750 
z
" transform="scale(0.015625)"/>
       </defs>
       <use xlink:href="#DejaVuSans-2212"/>
       <use xlink:href="#DejaVuSans-34" transform="translate(83.789062 0)"/>
       <use xlink:href="#DejaVuSans-30" transform="translate(147.412109 0)"/>
      </g>
     </g>
    </g>
    <g id="xtick_2">
     <g id="line2d_2">
      <g>
       <use xlink:href="#m2570a8b29c" x="269.534541" y="620.717726" style="stroke: #000000; stroke-width: 0.8"/>
      </g>
     </g>
     <g id="text_2">
      <!-- −20 -->
      <g transform="translate(258.982198 635.316164) scale(0.1 -0.1)">
       <defs>
        <path id="DejaVuSans-32" d="M 1228 531 
L 3431 531 
L 3431 0 
L 469 0 
L 469 531 
Q 828 903 1448 1529 
Q 2069 2156 2228 2338 
Q 2531 2678 2651 2914 
Q 2772 3150 2772 3378 
Q 2772 3750 2511 3984 
Q 2250 4219 1831 4219 
Q 1534 4219 1204 4116 
Q 875 4013 500 3803 
L 500 4441 
Q 881 4594 1212 4672 
Q 1544 4750 1819 4750 
Q 2544 4750 2975 4387 
Q 3406 4025 3406 3419 
Q 3406 3131 3298 2873 
Q 3191 2616 2906 2266 
Q 2828 2175 2409 1742 
Q 1991 1309 1228 531 
z
" transform="scale(0.015625)"/>
       </defs>
       <use xlink:href="#DejaVuSans-2212"/>
       <use xlink:href="#DejaVuSans-32" transform="translate(83.789062 0)"/>
       <use xlink:href="#DejaVuSans-30" transform="translate(147.412109 0)"/>
      </g>
     </g>
    </g>
    <g id="xtick_3">
     <g id="line2d_3">
      <g>
       <use xlink:href="#m2570a8b29c" x="368.999843" y="620.717726" style="stroke: #000000; stroke-width: 0.8"/>
      </g>
     </g>
     <g id="text_3">
      <!-- 0 -->
      <g transform="translate(365.818593 635.316164) scale(0.1 -0.1)">
       <use xlink:href="#DejaVuSans-30"/>
      </g>
     </g>
    </g>
    <g id="xtick_4">
     <g id="line2d_4">
      <g>
       <use xlink:href="#m2570a8b29c" x="468.465145" y="620.717726" style="stroke: #000000; stroke-width: 0.8"/>
      </g>
     </g>
     <g id="text_4">
      <!-- 20 -->
      <g transform="translate(462.102645 635.316164) scale(0.1 -0.1)">
       <use xlink:href="#DejaVuSans-32"/>
       <use xlink:href="#DejaVuSans-30" transform="translate(63.623047 0)"/>
      </g>
     </g>
    </g>
    <g id="xtick_5">
     <g id="line2d_5">
      <g>
       <use xlink:href="#m2570a8b29c" x="567.930448" y="620.717726" style="stroke: #000000; stroke-width: 0.8"/>
      </g>
     </g>
     <g id="text_5">
      <!-- 40 -->
      <g transform="translate(561.567948 635.316164) scale(0.1 -0.1)">
       <use xlink:href="#DejaVuSans-34"/>
       <use xlink:href="#DejaVuSans-30" transform="translate(63.623047 0)"/>
      </g>
     </g>
    </g>
    <g id="text_6">
     <!-- X -->
     <g transform="translate(365.575 648.994289) scale(0.1 -0.1)">
      <defs>
       <path id="DejaVuSans-58" d="M 403 4666 
L 1081 4666 
L 2241 2931 
L 3406 4666 
L 4084 4666 
L 2584 2425 
L 4184 0 
L 3506 0 
L 2194 1984 
L 872 0 
L 191 0 
L 1856 2491 
L 403 4666 
z
" transform="scale(0.015625)"/>
      </defs>
      <use xlink:href="#DejaVuSans-58"/>
     </g>
    </g>
   </g>
   <g id="matplotlib.axis_2">
    <g id="ytick_1">
     <g id="line2d_6">
      <defs>
       <path id="m16ae382db6" d="M 0 0 
L -3.5 0 
" style="stroke: #000000; stroke-width: 0.8"/>
      </defs>
      <g>
       <use xlink:href="#m16ae382db6" x="90" y="562.530604" style="stroke: #000000; stroke-width: 0.8"/>
      </g>
     </g>
     <g id="text_7">
      <!-- −40 -->
      <g transform="translate(61.895313 566.329823) scale(0.1 -0.1)">
       <use xlink:href="#DejaVuSans-2212"/>
       <use xlink:href="#DejaVuSans-34" transform="translate(83.789062 0)"/>
       <use xlink:href="#DejaVuSans-30" transform="translate(147.412109 0)"/>
      </g>
     </g>
    </g>
    <g id="ytick_2">
     <g id="line2d_7">
      <g>
       <use xlink:href="#m16ae382db6" x="90" y="463.065302" style="stroke: #000000; stroke-width: 0.8"/>
      </g>
     </g>
     <g id="text_8">
      <!-- −20 -->
      <g transform="translate(61.895313 466.864521) scale(0.1 -0.1)">
       <use xlink:href="#DejaVuSans-2212"/>
       <use xlink:href="#DejaVuSans-32" transform="translate(83.789062 0)"/>
       <use xlink:href="#DejaVuSans-30" transform="translate(147.412109 0)"/>
      </g>
     </g>
    </g>
    <g id="ytick_3">
     <g id="line2d_8">
      <g>
       <use xlink:href="#m16ae382db6" x="90" y="363.6" style="stroke: #000000; stroke-width: 0.8"/>
      </g>
     </g>
     <g id="text_9">
      <!-- 0 -->
      <g transform="translate(76.6375 367.399219) scale(0.1 -0.1)">
       <use xlink:href="#DejaVuSans-30"/>
      </g>
     </g>
    </g>
    <g id="ytick_4">
     <g id="line2d_9">
      <g>
       <use xlink:href="#m16ae382db6" x="90" y="264.134698" style="stroke: #000000; stroke-width: 0.8"/>
      </g>
     </g>
     <g id="text_10">
      <!-- 20 -->
      <g transform="translate(70.275 267.933917) scale(0.1 -0.1)">
       <use xlink:href="#DejaVuSans-32"/>
       <use xlink:href="#DejaVuSans-30" transform="translate(63.623047 0)"/>
      </g>
     </g>
    </g>
    <g id="ytick_5">
     <g id="line2d_10">
      <g>
       <use xlink:href="#m16ae382db6" x="90" y="164.669396" style="stroke: #000000; stroke-width: 0.8"/>
      </g>
     </g>
     <g id="text_11">
      <!-- 40 -->
      <g transform="translate(70.275 168.468615) scale(0.1 -0.1)">
       <use xlink:href="#DejaVuSans-34"/>
       <use xlink:href="#DejaVuSans-30" transform="translate(63.623047 0)"/>
      </g>
     </g>
    </g>
    <g id="text_12">
     <!-- Y -->
     <g transform="translate(55.815625 366.653906) rotate(-90) scale(0.1 -0.1)">
      <defs>
       <path id="DejaVuSans-59" d="M -13 4666 
L 666 4666 
L 1959 2747 
L 3244 4666 
L 3922 4666 
L 2272 2222 
L 2272 0 
L 1638 0 
L 1638 2222 
L -13 4666 
z
" transform="scale(0.015625)"/>
      </defs>
      <use xlink:href="#DejaVuSans-59"/>
     </g>
    </g>
   </g>
   <g id="line2d_11">
    <path d="M 398.839434 363.6 
L 398.732044 362.756896 
L 398.394659 361.889055 
L 397.805409 361.004264 
L 396.911204 360.08247 
L 395.668593 359.138075 
L 394.037767 358.189069 
L 391.985065 357.257194 
L 389.485855 356.367938 
L 386.45174 355.532008 
L 383.031221 354.821734 
L 379.17865 354.250056 
L 375.030956 353.858754 
L 370.663765 353.668946 
L 366.166947 353.698396 
L 361.734489 353.952802 
L 357.553653 354.414348 
L 353.702616 355.059925 
L 350.243664 355.864031 
L 347.287566 356.777015 
L 344.837075 357.763698 
L 342.922924 358.764995 
L 341.451889 359.777387 
L 340.412583 360.74869 
L 339.716022 361.689242 
L 339.315809 362.5857 
L 339.163238 363.459319 
L 339.234843 364.302844 
L 339.535371 365.172189 
L 340.087019 366.059669 
L 340.910236 366.956174 
L 342.0632 367.879387 
L 343.635523 368.8393 
L 345.630684 369.78496 
L 348.074873 370.691049 
L 350.98227 371.528628 
L 354.351613 372.26558 
L 358.162687 372.867369 
L 362.281558 373.291152 
L 366.634113 373.515221 
L 371.131765 373.521111 
L 375.580981 373.301602 
L 379.793293 372.873035 
L 383.688912 372.257896 
L 387.203766 371.48119 
L 390.223603 370.591687 
L 392.743186 369.624532 
L 394.774996 368.611572 
L 396.307771 367.609409 
L 397.434964 366.615609 
L 398.180198 365.679211 
L 398.637871 364.754147 
L 398.827495 363.881335 
L 398.839434 363.6 
L 398.839434 363.6 
" clip-path="url(#pc2e4b7f5bd)" style="fill: none; stroke-dasharray: 5.55,2.4; stroke-dashoffset: 0; stroke: #000000; stroke-width: 1.5"/>
   </g>
   <g id="line2d_12">
    <path d="M 423.70576 363.6 
L 423.597702 361.412991 
L 423.273956 359.234621 
L 422.735801 357.073497 
L 421.942317 354.832217 
L 420.918255 352.629123 
L 419.668074 350.473811 
L 418.197219 348.375666 
L 416.426629 346.24888 
L 414.42935 344.205027 
L 412.214929 342.253878 
L 409.679181 340.323277 
L 406.930926 338.514273 
L 403.98452 336.836315 
L 400.715408 335.234593 
L 397.265901 333.794211 
L 393.655621 332.52336 
L 389.746099 331.387614 
L 385.708541 330.450666 
L 381.567865 329.7183 
L 377.349626 329.195034 
L 373.079856 328.884099 
L 368.784907 328.787413 
L 364.491284 328.905573 
L 360.225485 329.237849 
L 356.013838 329.782191 
L 351.882333 330.53524 
L 347.85647 331.492349 
L 343.961092 332.647609 
L 340.220241 333.993892 
L 336.795844 335.458336 
L 333.554618 337.082847 
L 330.515001 338.858184 
L 327.807228 340.691743 
L 325.314643 342.644974 
L 323.050269 344.707674 
L 321.108809 346.773192 
L 319.396257 348.919138 
L 317.982617 351.033149 
L 316.791171 353.201893 
L 315.827108 355.415922 
L 315.094626 357.665596 
L 314.615257 359.832317 
L 314.350734 362.013923 
L 314.302102 364.201794 
L 314.469552 366.387288 
L 314.852424 368.561771 
L 315.449205 370.716652 
L 316.303454 372.948868 
L 317.387209 375.140367 
L 318.695751 377.281605 
L 320.223382 379.363256 
L 322.05148 381.470247 
L 324.103981 383.491823 
L 326.371073 385.418321 
L 328.958886 387.320739 
L 331.755871 389.099241 
L 334.747418 390.744535 
L 338.059552 392.310056 
L 341.54767 393.712277 
L 345.191933 394.943223 
L 349.131724 396.035793 
L 353.19413 396.928185 
L 357.354081 397.614892 
L 361.585904 398.091677 
L 365.863482 398.355596 
L 370.160417 398.405021 
L 374.450188 398.239647 
L 378.706323 397.860494 
L 382.902555 397.269902 
L 387.012986 396.471517 
L 391.012248 395.470266 
L 394.875662 394.272327 
L 398.579382 392.885093 
L 401.963487 391.383198 
L 405.160099 389.723275 
L 408.151036 387.914766 
L 410.808597 386.051694 
L 413.24775 384.071335 
L 415.364721 382.076864 
L 417.260079 379.994078 
L 418.924764 377.832932 
L 420.291276 375.706409 
L 421.434401 373.527159 
L 422.349159 371.304674 
L 423.031566 369.048632 
L 423.46273 366.877813 
L 423.678738 364.694045 
L 423.70576 363.6 
L 423.70576 363.6 
" clip-path="url(#pc2e4b7f5bd)" style="fill: none; stroke: #1f77b4; stroke-width: 1.5; stroke-linecap: square"/>
   </g>
   <g id="line2d_13">
    <path d="M 448.572085 363.6 
L 448.458516 360.412632 
L 448.118133 357.234363 
L 447.551907 354.074264 
L 446.761455 350.941357 
L 445.749034 347.844583 
L 444.517532 344.792783 
L 443.070466 341.794668 
L 441.411967 338.858796 
L 439.546767 335.993548 
L 437.480192 333.207102 
L 435.079126 330.351475 
L 432.4666 327.602246 
L 429.650974 324.968214 
L 426.641258 322.457807 
L 423.447085 320.07906 
L 420.078675 317.839583 
L 416.546807 315.746545 
L 412.65389 313.703487 
L 408.605328 311.838331 
L 404.415554 310.157729 
L 400.099509 308.667671 
L 395.672579 307.373471 
L 391.15055 306.279743 
L 386.549544 305.390386 
L 381.885966 304.708572 
L 377.176443 304.236731 
L 372.437766 303.976546 
L 367.686833 303.928944 
L 362.94058 304.094095 
L 358.215932 304.471411 
L 353.529733 305.059546 
L 348.898691 305.856403 
L 344.339319 306.859141 
L 339.867872 308.064184 
L 335.500294 309.467237 
L 331.252156 311.063297 
L 327.138604 312.846672 
L 323.174306 314.811005 
L 319.373396 316.949292 
L 315.749426 319.253909 
L 312.491124 321.58322 
L 309.413656 324.046988 
L 306.52687 326.63733 
L 303.840003 329.345956 
L 301.361655 332.164199 
L 299.099755 335.083039 
L 297.061542 338.093136 
L 295.347842 341.011121 
L 293.844381 343.993586 
L 292.555451 347.032017 
L 291.484731 350.117741 
L 290.635277 353.24195 
L 290.009514 356.395727 
L 289.609227 359.570067 
L 289.435561 362.755912 
L 289.48901 365.944165 
L 289.769423 369.125727 
L 290.275997 372.291516 
L 291.007289 375.432496 
L 291.961209 378.539699 
L 293.135035 381.604257 
L 294.525417 384.617423 
L 296.128385 387.570594 
L 297.939364 390.455341 
L 299.953185 393.26343 
L 302.300158 396.144242 
L 304.860577 398.920909 
L 307.626248 401.584545 
L 310.58832 404.126627 
L 313.737315 406.53902 
L 317.063155 408.814004 
L 320.555198 410.944299 
L 324.409197 413.028448 
L 328.422181 414.936363 
L 332.579842 416.661242 
L 336.867355 418.196934 
L 341.269436 419.537965 
L 345.770387 420.679553 
L 350.354161 421.617627 
L 355.004415 422.348844 
L 359.704568 422.870595 
L 364.437864 423.181021 
L 369.187425 423.279015 
L 373.936317 423.164228 
L 378.667608 422.837068 
L 383.36443 422.298702 
L 388.010035 421.551051 
L 392.587862 420.596778 
L 397.081586 419.439287 
L 401.475187 418.082706 
L 405.753 416.531869 
L 409.899771 414.792308 
L 413.900716 412.870224 
L 417.741571 410.77247 
L 421.40864 408.506526 
L 424.710543 406.212012 
L 427.834165 403.781135 
L 430.769512 401.221675 
L 433.507191 398.541821 
L 436.038439 395.750151 
L 438.355157 392.855597 
L 440.449931 389.867422 
L 442.218488 386.967907 
L 443.778043 384.001689 
L 445.124144 380.977235 
L 446.252949 377.903177 
L 447.161236 374.788291 
L 447.846411 371.641468 
L 448.30652 368.471691 
L 448.540249 365.288008 
L 448.572085 363.6 
L 448.572085 363.6 
" clip-path="url(#pc2e4b7f5bd)" style="fill: none; stroke: #ff7f0e; stroke-width: 1.5; stroke-linecap: square"/>
   </g>
   <g id="line2d_14">
    <path d="M 473.438411 363.6 
L 473.322355 359.61537 
L 472.974445 355.639597 
L 472.395455 351.681514 
L 471.586671 347.749921 
L 470.54989 343.853554 
L 469.287418 340.001072 
L 467.802059 336.201039 
L 466.097115 332.461899 
L 464.176375 328.791963 
L 462.044108 325.199386 
L 459.705053 321.692154 
L 457.164408 318.27806 
L 454.42782 314.964694 
L 451.50137 311.759418 
L 448.391564 308.669356 
L 445.105311 305.701376 
L 441.413729 302.677519 
L 437.53904 299.807711 
L 433.491041 297.099209 
L 429.279969 294.558863 
L 424.916473 292.193094 
L 420.411584 290.007886 
L 415.776695 288.008764 
L 411.023526 286.200784 
L 406.164094 284.588516 
L 401.210689 283.176037 
L 396.175835 281.96692 
L 391.072263 280.964221 
L 385.912879 280.170476 
L 380.710728 279.587693 
L 375.478965 279.217344 
L 370.230818 279.060366 
L 364.979559 279.117157 
L 359.738466 279.387571 
L 354.520791 279.870927 
L 349.339728 280.566001 
L 344.208378 281.471036 
L 339.139716 282.583744 
L 334.146559 283.901311 
L 329.241532 285.420404 
L 324.437039 287.137184 
L 319.745227 289.047309 
L 315.177962 291.145948 
L 310.746792 293.427796 
L 306.462921 295.887083 
L 302.337181 298.517589 
L 298.380006 301.312664 
L 294.601402 304.265239 
L 291.010922 307.367849 
L 287.823783 310.405836 
L 284.817056 313.562046 
L 281.997423 316.829464 
L 279.37115 320.200828 
L 276.944075 323.668645 
L 274.72159 327.225209 
L 272.708637 330.862614 
L 270.909688 334.572778 
L 269.328741 338.347453 
L 267.969311 342.178252 
L 266.834418 346.05666 
L 265.926585 349.974058 
L 265.24783 353.921738 
L 264.79966 357.890929 
L 264.583072 361.872807 
L 264.598548 365.858525 
L 264.846052 369.839223 
L 265.325035 373.806054 
L 266.034433 377.750203 
L 266.972668 381.662903 
L 268.137656 385.535459 
L 269.526807 389.359264 
L 271.137034 393.12582 
L 272.964759 396.826755 
L 275.005919 400.453845 
L 277.255977 403.999028 
L 279.709934 407.454426 
L 282.362335 410.812358 
L 285.207285 414.065363 
L 288.238462 417.206209 
L 291.449129 420.227917 
L 294.83215 423.123772 
L 298.6222 426.066718 
L 302.590208 428.85171 
L 306.72614 431.471705 
L 311.019539 433.92008 
L 315.459547 436.190641 
L 320.034938 438.27765 
L 324.734143 440.175827 
L 329.545278 441.880373 
L 334.456179 443.386979 
L 339.454427 444.691834 
L 344.527385 445.791639 
L 349.662223 446.683613 
L 354.84596 447.365501 
L 360.065485 447.835578 
L 365.307603 448.092656 
L 370.559056 448.136084 
L 375.806567 447.965753 
L 381.036867 447.582094 
L 386.236729 446.986077 
L 391.393006 446.179208 
L 396.492659 445.163529 
L 401.522794 443.941606 
L 406.470691 442.516531 
L 411.323838 440.891906 
L 416.069964 439.07184 
L 420.697068 437.060935 
L 425.19345 434.864275 
L 429.54774 432.487416 
L 433.748927 429.936367 
L 437.786389 427.217578 
L 441.649916 424.337926 
L 445.32974 421.30469 
L 448.816554 418.125542 
L 451.902304 415.019716 
L 454.803805 411.799611 
L 457.51461 408.472384 
L 460.028693 405.045429 
L 462.340466 401.526362 
L 464.444793 397.923006 
L 466.336997 394.243368 
L 468.012871 390.495625 
L 469.468692 386.688108 
L 470.701223 382.829278 
L 471.707726 378.927712 
L 472.485964 374.99208 
L 473.034206 371.03113 
L 473.351236 367.053664 
L 473.438411 363.6 
L 473.438411 363.6 
" clip-path="url(#pc2e4b7f5bd)" style="fill: none; stroke: #2ca02c; stroke-width: 1.5; stroke-linecap: square"/>
   </g>
   <g id="line2d_15">
    <path d="M 498.304736 363.6 
L 498.196805 359.130552 
L 497.873193 354.668566 
L 497.33444 350.22149 
L 496.581444 345.796747 
L 495.615465 341.401726 
L 494.438113 337.043762 
L 493.051354 332.730132 
L 491.457504 328.468035 
L 489.659222 324.264588 
L 487.659513 320.126808 
L 485.461712 316.061601 
L 483.06949 312.075755 
L 480.486841 308.175924 
L 477.497514 304.079764 
L 474.298129 300.098838 
L 470.894879 296.240855 
L 467.294354 292.513284 
L 463.503525 288.923342 
L 459.529729 285.477978 
L 455.380663 282.183864 
L 451.064357 279.047377 
L 446.589168 276.074589 
L 441.963762 273.271257 
L 437.197093 270.642806 
L 432.298389 268.194327 
L 427.277136 265.93056 
L 422.143053 263.855887 
L 416.906082 261.974325 
L 411.576361 260.289517 
L 406.16421 258.804725 
L 400.680105 257.522824 
L 395.134666 256.446295 
L 389.538627 255.577223 
L 383.902825 254.91729 
L 378.238169 254.467774 
L 372.555627 254.229545 
L 366.866201 254.203064 
L 361.180906 254.388383 
L 355.510749 254.785143 
L 349.866707 255.392576 
L 344.259709 256.209505 
L 338.700609 257.23435 
L 333.20017 258.465125 
L 327.769042 259.899449 
L 322.41774 261.534543 
L 317.156623 263.367243 
L 311.995879 265.394001 
L 306.945498 267.610891 
L 302.015258 270.013623 
L 297.214704 272.597544 
L 292.553132 275.357652 
L 288.039565 278.288603 
L 283.682743 281.384722 
L 279.4911 284.640016 
L 275.472753 288.048181 
L 271.635479 291.60262 
L 267.98671 295.29645 
L 264.533509 299.122521 
L 261.282561 303.073424 
L 258.240161 307.141511 
L 255.412199 311.318904 
L 252.983037 315.288722 
L 250.747553 319.33919 
L 248.709479 323.463546 
L 246.872218 327.654907 
L 245.238837 331.906275 
L 243.812062 336.210552 
L 242.594276 340.560553 
L 241.587512 344.949016 
L 240.793449 349.368615 
L 240.213414 353.811971 
L 239.848376 358.271668 
L 239.698943 362.74026 
L 239.765365 367.210288 
L 240.04753 371.674288 
L 240.544969 376.124809 
L 241.256851 380.554421 
L 242.181986 384.95573 
L 243.318832 389.321387 
L 244.665489 393.644105 
L 246.21971 397.916667 
L 247.9789 402.131941 
L 249.940123 406.28289 
L 252.100104 410.362584 
L 254.455237 414.364213 
L 257.001591 418.281095 
L 259.952786 422.397005 
L 263.115103 426.39908 
L 266.482421 430.279572 
L 270.048218 434.030967 
L 273.805593 437.646004 
L 277.74727 441.117683 
L 281.865618 444.439282 
L 286.152664 447.604371 
L 290.600107 450.606822 
L 295.199337 453.440823 
L 299.94145 456.100885 
L 304.817264 458.58186 
L 309.817341 460.878943 
L 314.931998 462.987688 
L 320.151334 464.904012 
L 325.465244 466.624205 
L 330.863441 468.144936 
L 336.335471 469.463261 
L 341.870742 470.576628 
L 347.458537 471.482881 
L 353.088037 472.180266 
L 358.748344 472.667432 
L 364.428498 472.943437 
L 370.117502 473.007745 
L 375.804343 472.860233 
L 381.47801 472.501186 
L 387.127518 471.931298 
L 392.74193 471.151675 
L 398.310375 470.163824 
L 403.822073 468.969659 
L 409.266354 467.571491 
L 414.632675 465.972027 
L 419.910649 464.174364 
L 425.090056 462.181983 
L 430.160868 459.998741 
L 435.113269 457.628864 
L 439.937669 455.076941 
L 444.62473 452.347913 
L 449.165375 449.447063 
L 453.550815 446.380007 
L 457.772559 443.152684 
L 461.822433 439.771342 
L 465.692596 436.242526 
L 469.375556 432.573071 
L 472.864181 428.770078 
L 476.151719 424.840912 
L 479.231803 420.79318 
L 482.098471 416.634718 
L 484.564424 412.681175 
L 486.837454 408.645696 
L 488.913766 404.535017 
L 490.789893 400.356001 
L 492.462705 396.115625 
L 493.929407 391.820968 
L 495.187552 387.479198 
L 496.235039 383.097565 
L 497.070119 378.683382 
L 497.691399 374.244019 
L 498.097842 369.786887 
L 498.288768 365.319426 
L 498.304736 363.6 
L 498.304736 363.6 
" clip-path="url(#pc2e4b7f5bd)" style="fill: none; stroke: #d62728; stroke-width: 1.5; stroke-linecap: square"/>
   </g>
   <g id="line2d_16">
    <path d="M 523.171062 363.6 
L 523.061409 358.536501 
L 522.732608 353.480205 
L 522.185125 348.438304 
L 521.41974 343.41797 
L 520.437541 338.426345 
L 519.239925 333.470529 
L 517.828597 328.557571 
L 516.205563 323.69446 
L 514.373132 318.888113 
L 512.333911 314.145369 
L 510.090801 309.472972 
L 507.646992 304.87757 
L 505.005961 300.3657 
L 502.171464 295.943778 
L 499.147534 291.618096 
L 495.938472 287.394806 
L 492.548842 283.279917 
L 488.983467 279.279281 
L 485.247419 275.398589 
L 481.34601 271.643362 
L 476.939323 267.722973 
L 472.352442 263.962642 
L 467.593023 260.368645 
L 462.669014 256.946982 
L 457.588633 253.703366 
L 452.360362 250.643212 
L 446.992928 247.771627 
L 441.495294 245.093407 
L 435.876635 242.613021 
L 430.146332 240.334611 
L 424.313951 238.26198 
L 418.389229 236.398589 
L 412.382056 234.747547 
L 406.302461 233.311612 
L 400.160593 232.09318 
L 393.966705 231.094286 
L 387.731138 230.316597 
L 381.4643 229.761411 
L 375.176654 229.429655 
L 368.878697 229.321884 
L 362.580942 229.438276 
L 356.293903 229.778638 
L 350.028075 230.342401 
L 343.793918 231.128624 
L 337.60184 232.135995 
L 331.462178 233.362833 
L 325.385182 234.807088 
L 319.380995 236.46635 
L 313.459643 238.337849 
L 307.631009 240.41846 
L 301.904825 242.704711 
L 296.290648 245.192784 
L 290.797853 247.878527 
L 285.435608 250.757455 
L 280.212865 253.824762 
L 275.138343 257.075328 
L 270.220514 260.503726 
L 265.467586 264.104234 
L 260.887496 267.870839 
L 256.487888 271.797255 
L 252.276108 275.876926 
L 248.561107 279.772916 
L 245.017428 283.788149 
L 241.650111 287.916911 
L 238.463946 292.153331 
L 235.463465 296.491383 
L 232.652937 300.924895 
L 230.036359 305.44756 
L 227.617453 310.052947 
L 225.399661 314.734502 
L 223.386136 319.485568 
L 221.579743 324.299385 
L 219.983052 329.169107 
L 218.598334 334.087806 
L 217.427559 339.048485 
L 216.472392 344.044088 
L 215.734191 349.067509 
L 215.214007 354.111602 
L 214.91258 359.169192 
L 214.830339 364.233085 
L 214.9674 369.296077 
L 215.323568 374.350967 
L 215.898338 379.390564 
L 216.690891 384.407699 
L 217.700099 389.395236 
L 218.924529 394.346079 
L 220.362436 399.253187 
L 222.011777 404.109579 
L 223.870205 408.908347 
L 225.935077 413.642665 
L 228.203455 418.305799 
L 230.672112 422.891114 
L 233.337538 427.39209 
L 236.19594 431.802323 
L 239.243252 436.115539 
L 242.47514 440.325604 
L 245.887007 444.426529 
L 249.473998 448.41248 
L 253.231013 452.277787 
L 257.152706 456.016951 
L 261.580566 459.919201 
L 266.187752 463.660655 
L 270.966572 467.235069 
L 275.909049 470.636473 
L 281.006932 473.859191 
L 286.25171 476.897843 
L 291.634628 479.747355 
L 297.1467 482.40297 
L 302.778723 484.860256 
L 308.521295 487.11511 
L 314.364831 489.163768 
L 320.299574 491.002809 
L 326.315618 492.629164 
L 332.402918 494.040119 
L 338.551314 495.233316 
L 344.75054 496.206765 
L 350.990248 496.958839 
L 357.260021 497.488285 
L 363.549393 497.794218 
L 369.847864 497.876126 
L 376.144919 497.733875 
L 382.430046 497.3677 
L 388.692752 496.778213 
L 394.922584 495.966398 
L 401.109139 494.933611 
L 407.242092 493.681576 
L 413.311203 492.212383 
L 419.306341 490.528484 
L 425.217497 488.63269 
L 431.034803 486.528167 
L 436.748548 484.218428 
L 442.349193 481.707328 
L 447.827389 478.99906 
L 453.17399 476.098145 
L 458.380071 473.009425 
L 463.436941 469.738057 
L 468.336157 466.289503 
L 473.069541 462.669518 
L 477.629191 458.884147 
L 482.007495 454.939708 
L 486.197145 450.842787 
L 489.891014 446.931585 
L 493.412919 442.901846 
L 496.757848 438.759302 
L 499.921045 434.509845 
L 502.89801 430.159521 
L 505.684508 425.714517 
L 508.276574 421.181157 
L 510.670523 416.565889 
L 512.862949 411.875278 
L 514.850733 407.115997 
L 516.631047 402.294815 
L 518.20136 397.418591 
L 519.559436 392.494261 
L 520.703346 387.528829 
L 521.63146 382.529359 
L 522.34246 377.502963 
L 522.835333 372.45679 
L 523.109379 367.398018 
L 523.171062 363.6 
L 523.171062 363.6 
" clip-path="url(#pc2e4b7f5bd)" style="fill: none; stroke: #9467bd; stroke-width: 1.5; stroke-linecap: square"/>
   </g>
   <g id="line2d_17">
    <path d="M 548.037387 363.6 
L 547.930385 358.098706 
L 547.609508 352.603989 
L 547.07514 347.122414 
L 546.327918 341.660536 
L 545.368736 336.224881 
L 544.198741 330.821948 
L 542.819331 325.458195 
L 541.232155 320.140032 
L 539.439109 314.873817 
L 537.442338 309.665844 
L 535.244228 304.522339 
L 532.847407 299.449449 
L 530.254739 294.453238 
L 527.469323 289.539678 
L 524.494489 284.714642 
L 521.333792 279.983898 
L 517.991011 275.3531 
L 514.470141 270.827783 
L 510.77539 266.413357 
L 506.911176 262.115098 
L 502.507829 257.564609 
L 497.91457 253.164953 
L 493.137933 248.922389 
L 488.184712 244.84295 
L 483.061953 240.932441 
L 477.776944 237.196423 
L 472.337202 233.640212 
L 466.750465 230.268865 
L 461.02468 227.087179 
L 455.167992 224.099679 
L 449.188732 221.310615 
L 443.095405 218.723955 
L 436.896679 216.343377 
L 430.601371 214.172268 
L 424.218436 212.213717 
L 417.756954 210.470509 
L 411.226116 208.945124 
L 404.635212 207.639733 
L 397.993618 206.556191 
L 391.310781 205.69604 
L 384.596207 205.060504 
L 377.859448 204.650487 
L 371.110086 204.466572 
L 364.357722 204.50902 
L 357.611962 204.777771 
L 350.882401 205.272444 
L 344.178611 205.992333 
L 337.510129 206.936416 
L 330.88644 208.103349 
L 324.316967 209.491473 
L 317.811054 211.098812 
L 311.377956 212.923081 
L 305.026823 214.961684 
L 298.766691 217.211722 
L 292.606464 219.669993 
L 286.554904 222.333002 
L 280.620621 225.19696 
L 274.812055 228.257792 
L 269.137469 231.511146 
L 263.604935 234.952393 
L 258.222323 238.576639 
L 252.997289 242.378727 
L 247.937266 246.35325 
L 243.049451 250.494553 
L 238.340799 254.796746 
L 233.818005 259.25371 
L 229.487505 263.859103 
L 225.355457 268.606376 
L 221.747108 273.076915 
L 218.31477 277.655657 
L 215.062545 282.337128 
L 211.994321 287.115732 
L 209.113765 291.985757 
L 206.424321 296.941383 
L 203.929204 301.976686 
L 201.631395 307.085647 
L 199.533641 312.262159 
L 197.638449 317.500036 
L 195.948086 322.793016 
L 194.464571 328.134772 
L 193.189678 333.51892 
L 192.124931 338.939023 
L 191.271601 344.388604 
L 190.63071 349.861149 
L 190.203023 355.350115 
L 189.989052 360.848942 
L 189.989052 366.351058 
L 190.203023 371.849885 
L 190.63071 377.338851 
L 191.271601 382.811396 
L 192.124931 388.260977 
L 193.189678 393.68108 
L 194.464571 399.065228 
L 195.948086 404.406984 
L 197.638449 409.699964 
L 199.533641 414.937841 
L 201.631395 420.114353 
L 203.929204 425.223314 
L 206.424321 430.258617 
L 209.113765 435.214243 
L 211.994321 440.084268 
L 215.062545 444.862872 
L 218.31477 449.544343 
L 221.747108 454.123085 
L 225.355457 458.593624 
L 229.135505 462.950618 
L 233.449699 467.568088 
L 237.95671 472.037665 
L 242.650127 476.352993 
L 247.523273 480.507932 
L 252.569217 484.496572 
L 257.78078 488.31324 
L 263.150551 491.952506 
L 268.670889 495.409194 
L 274.333943 498.678386 
L 280.131657 501.755432 
L 286.055784 504.635956 
L 292.097897 507.315859 
L 298.249401 509.791329 
L 304.501546 512.058846 
L 310.845438 514.115184 
L 317.272054 515.957417 
L 323.772251 517.582925 
L 330.336784 518.989397 
L 336.956313 520.17483 
L 343.621424 521.13754 
L 350.322635 521.876155 
L 357.050414 522.389627 
L 363.795191 522.677225 
L 370.547371 522.738538 
L 377.29735 522.573481 
L 384.035526 522.182288 
L 390.752314 521.565515 
L 397.43816 520.72404 
L 404.083552 519.659059 
L 410.67904 518.372088 
L 417.215239 516.864958 
L 423.682853 515.139812 
L 430.072682 513.199103 
L 436.375636 511.045594 
L 442.582749 508.682347 
L 448.685193 506.112723 
L 454.674286 503.340378 
L 460.541509 500.369256 
L 466.278516 497.203583 
L 471.877147 493.847862 
L 477.329437 490.306867 
L 482.627631 486.585633 
L 487.764192 482.689456 
L 492.731813 478.623877 
L 497.523429 474.394679 
L 502.132222 470.007878 
L 506.551638 465.469714 
L 510.77539 460.786643 
L 514.470141 456.372217 
L 517.991011 451.8469 
L 521.333792 447.216102 
L 524.494489 442.485358 
L 527.469323 437.660322 
L 530.254739 432.746762 
L 532.847407 427.750551 
L 535.244228 422.677661 
L 537.442338 417.534156 
L 539.439109 412.326183 
L 541.232155 407.059968 
L 542.819331 401.741805 
L 544.198741 396.378052 
L 545.368736 390.975119 
L 546.327918 385.539464 
L 547.07514 380.077586 
L 547.609508 374.596011 
L 547.930385 369.101294 
L 548.037387 363.6 
L 548.037387 363.6 
" clip-path="url(#pc2e4b7f5bd)" style="fill: none; stroke: #8c564b; stroke-width: 1.5; stroke-linecap: square"/>
   </g>
   <g id="line2d_18">
    <path d="M 572.903713 363.6 
L 572.78185 357.239129 
L 572.416406 350.885862 
L 571.80782 344.547792 
L 570.956817 338.232494 
L 569.864416 331.947519 
L 568.531921 325.700377 
L 566.960926 319.498537 
L 565.153309 313.349412 
L 563.11123 307.260351 
L 560.837129 301.238632 
L 558.333726 295.291454 
L 555.604013 289.425925 
L 552.651252 283.649056 
L 549.478973 277.967753 
L 546.090967 272.388805 
L 542.491285 266.918882 
L 538.684228 261.564522 
L 534.674349 256.332124 
L 530.466438 251.227944 
L 526.065527 246.258082 
L 521.476876 241.428478 
L 516.705969 236.744906 
L 511.75851 232.212964 
L 506.640411 227.838068 
L 501.357791 223.625448 
L 495.916963 219.580139 
L 490.324432 215.706977 
L 484.586882 212.010592 
L 478.71117 208.495401 
L 472.704321 205.165606 
L 466.573514 202.025187 
L 460.326078 199.077899 
L 453.969479 196.327263 
L 447.511316 193.776569 
L 440.959309 191.428864 
L 434.321289 189.286955 
L 427.60519 187.353402 
L 420.81904 185.630516 
L 413.970951 184.120356 
L 407.069108 182.824729 
L 400.121761 181.745182 
L 393.137214 180.883005 
L 386.123815 180.23923 
L 379.089949 179.814625 
L 372.044021 179.609699 
L 364.994455 179.624697 
L 357.949677 179.859599 
L 350.918106 180.314126 
L 343.908149 180.987734 
L 336.928184 181.879619 
L 329.986554 182.988713 
L 323.091557 184.313692 
L 316.251433 185.852972 
L 309.47436 187.604712 
L 302.768438 189.566819 
L 296.141681 191.736947 
L 289.602012 194.112503 
L 283.157248 196.690648 
L 276.81509 199.468298 
L 270.583121 202.442135 
L 264.468789 205.608604 
L 258.479403 208.963919 
L 252.622122 212.504071 
L 246.903947 216.224828 
L 241.331713 220.121741 
L 235.91208 224.190154 
L 230.651527 228.425204 
L 225.556341 232.821827 
L 220.632613 237.374769 
L 215.886229 242.078589 
L 211.32286 246.927662 
L 206.947963 251.916194 
L 202.766766 257.038221 
L 198.784267 262.287621 
L 195.005227 267.65812 
L 191.434162 273.143298 
L 188.07534 278.736599 
L 184.932778 284.431337 
L 182.010231 290.220705 
L 179.311192 296.097783 
L 176.838887 302.055546 
L 174.596272 308.086873 
L 172.586027 314.184555 
L 170.810556 320.341304 
L 169.271979 326.549759 
L 167.972137 332.8025 
L 166.912584 339.092054 
L 166.094584 345.410902 
L 165.519117 351.751491 
L 165.18687 358.106243 
L 165.09824 364.467561 
L 165.253334 370.827843 
L 165.651965 377.179485 
L 166.293658 383.514895 
L 167.177645 389.826501 
L 168.30287 396.106759 
L 169.667987 402.348161 
L 171.271366 408.543248 
L 173.111089 414.684615 
L 175.184957 420.76492 
L 177.490492 426.776895 
L 180.024938 432.713356 
L 182.785265 438.567206 
L 185.768174 444.331447 
L 188.9701 449.99919 
L 192.387214 455.563661 
L 196.015434 461.018207 
L 199.850421 466.35631 
L 203.887593 471.571588 
L 208.122123 476.657808 
L 212.54895 481.60889 
L 217.162782 486.418916 
L 221.958104 491.082137 
L 226.929186 495.592979 
L 232.070084 499.94605 
L 237.374654 504.136147 
L 242.836556 508.158261 
L 248.44926 512.007585 
L 254.206058 515.679518 
L 260.100069 519.16967 
L 266.124248 522.47387 
L 272.271393 525.588169 
L 278.534158 528.508843 
L 284.905057 531.232402 
L 291.376473 533.755591 
L 297.940673 536.075393 
L 304.58981 538.189035 
L 311.315936 540.093991 
L 318.111011 541.787984 
L 324.966914 543.26899 
L 331.875449 544.535237 
L 338.828359 545.585213 
L 345.817333 546.417663 
L 352.834017 547.031591 
L 359.870024 547.426263 
L 366.916944 547.601208 
L 373.966353 547.556217 
L 381.009826 547.291343 
L 388.038944 546.806903 
L 395.045304 546.103477 
L 402.020531 545.181904 
L 408.95629 544.043287 
L 415.844288 542.688987 
L 422.676294 541.120621 
L 429.44414 539.340066 
L 436.139737 537.349448 
L 442.755082 535.151149 
L 449.282267 532.747794 
L 455.713491 530.142258 
L 462.041067 527.337654 
L 468.25743 524.337334 
L 474.355151 521.144886 
L 480.326941 517.764124 
L 486.165662 514.199091 
L 491.864334 510.454046 
L 497.416147 506.533467 
L 502.814465 502.44204 
L 508.052833 498.184656 
L 513.124993 493.766402 
L 518.024879 489.192561 
L 522.746636 484.4686 
L 527.28462 479.600164 
L 531.633407 474.593074 
L 535.787798 469.453313 
L 539.742827 464.187027 
L 543.493768 458.800509 
L 547.036136 453.300198 
L 550.365698 447.692668 
L 553.478474 441.984623 
L 556.370743 436.182885 
L 559.039048 430.294388 
L 561.480199 424.326172 
L 563.691278 418.28537 
L 565.669644 412.179203 
L 567.41293 406.014969 
L 568.919054 399.800036 
L 570.186214 393.541834 
L 571.212897 387.247842 
L 571.997875 380.925584 
L 572.54021 374.582617 
L 572.839253 368.226522 
L 572.903713 363.6 
L 572.903713 363.6 
" clip-path="url(#pc2e4b7f5bd)" style="fill: none; stroke: #e377c2; stroke-width: 1.5; stroke-linecap: square"/>
   </g>
   <g id="line2d_19">
    <path d="M 597.770038 363.6 
L 597.657041 357.03573 
L 597.318161 350.477944 
L 596.753733 343.933121 
L 595.964314 337.407726 
L 594.950685 330.908206 
L 593.713846 324.440981 
L 592.25502 318.01244 
L 590.575647 311.628933 
L 588.677387 305.296767 
L 586.562115 299.022196 
L 584.23192 292.81142 
L 581.689105 286.670574 
L 578.936181 280.605723 
L 575.975868 274.62286 
L 572.81109 268.727895 
L 569.444974 262.92665 
L 565.880845 257.224857 
L 562.122223 251.628149 
L 558.172823 246.142054 
L 554.036544 240.771992 
L 549.717474 235.523268 
L 545.219879 230.401066 
L 540.548202 225.410447 
L 535.707059 220.556341 
L 530.70123 215.843543 
L 525.535662 211.276709 
L 520.215458 206.86035 
L 514.745873 202.598829 
L 509.13231 198.496355 
L 503.380315 194.556982 
L 497.49557 190.784601 
L 491.483888 187.182939 
L 485.351209 183.755553 
L 479.103589 180.505829 
L 472.747202 177.436978 
L 466.288326 174.552031 
L 459.733343 171.853839 
L 453.088726 169.345066 
L 446.361041 167.028191 
L 439.556934 164.905503 
L 432.683125 162.979099 
L 425.746406 161.250882 
L 418.753629 159.722558 
L 411.711701 158.395638 
L 404.62758 157.271433 
L 397.508264 156.351053 
L 390.360785 155.635407 
L 383.192204 155.125203 
L 376.009603 154.820943 
L 368.820078 154.72293 
L 361.63073 154.83126 
L 354.448662 155.145825 
L 347.280968 155.666315 
L 340.13473 156.392216 
L 333.017006 157.322811 
L 325.934829 158.45718 
L 318.895194 159.794203 
L 311.905056 161.332558 
L 304.97132 163.070727 
L 298.100836 165.006993 
L 291.300391 167.139442 
L 284.576702 169.465967 
L 277.936412 171.984271 
L 271.386081 174.691866 
L 264.932179 177.586077 
L 258.581082 180.664045 
L 252.339064 183.92273 
L 246.212291 187.358911 
L 240.206816 190.969196 
L 234.328571 194.750016 
L 228.583364 198.697638 
L 222.97687 202.808162 
L 217.514626 207.077526 
L 212.20203 211.501514 
L 207.04433 216.075755 
L 202.046619 220.79573 
L 197.213837 225.656776 
L 192.550756 230.654093 
L 188.061983 235.782742 
L 183.751953 241.037657 
L 179.624923 246.413648 
L 175.68497 251.905403 
L 171.935986 257.507498 
L 168.381676 263.214398 
L 165.025549 269.020465 
L 161.870922 274.919965 
L 158.920911 280.907068 
L 156.178429 286.975861 
L 153.646187 293.120349 
L 151.326686 299.334461 
L 149.222216 305.612059 
L 147.334858 311.946941 
L 145.666475 318.33285 
L 144.218716 324.763476 
L 142.99301 331.232468 
L 141.99057 337.733435 
L 141.212384 344.259954 
L 140.659222 350.805579 
L 140.331629 357.363843 
L 140.229931 363.928267 
L 140.354227 370.492368 
L 140.704394 377.049659 
L 141.280087 383.593664 
L 142.080737 390.117918 
L 143.105552 396.615975 
L 144.353521 403.081418 
L 145.823411 409.507858 
L 147.513769 415.888947 
L 149.422926 422.218381 
L 151.548995 428.489909 
L 153.889877 434.697334 
L 156.44326 440.834524 
L 159.206619 446.895416 
L 162.177227 452.874024 
L 165.352147 458.764441 
L 168.728245 464.560849 
L 172.302184 470.25752 
L 176.070434 475.848828 
L 180.029273 481.329249 
L 184.17479 486.693369 
L 188.502889 491.93589 
L 193.009295 497.051632 
L 197.689556 502.035541 
L 202.539049 506.882694 
L 207.552983 511.588303 
L 212.726405 516.14772 
L 218.054204 520.556439 
L 223.531118 524.810107 
L 229.151735 528.90452 
L 234.910504 532.835635 
L 240.801735 536.599567 
L 246.819609 540.192599 
L 252.95818 543.61118 
L 259.211385 546.851935 
L 265.573047 549.911661 
L 272.03688 552.787337 
L 278.5965 555.47612 
L 285.245427 557.975355 
L 291.977091 560.282573 
L 298.784844 562.395495 
L 305.66196 564.312034 
L 312.601646 566.030295 
L 319.597045 567.548583 
L 326.641247 568.865397 
L 333.727295 569.979435 
L 340.848187 570.889599 
L 347.996888 571.594988 
L 355.166338 572.094905 
L 362.349454 572.388857 
L 369.53914 572.476554 
L 376.728292 572.357908 
L 383.90981 572.033038 
L 391.076599 571.502263 
L 398.221579 570.766109 
L 405.337692 569.825302 
L 412.417908 568.680772 
L 419.455233 567.333649 
L 426.442714 565.785265 
L 433.373449 564.037149 
L 440.240592 562.091027 
L 447.037359 559.948823 
L 453.757035 557.612652 
L 460.392982 555.084823 
L 466.938645 552.367832 
L 473.387557 549.464364 
L 479.733348 546.377286 
L 485.96975 543.109649 
L 492.0906 539.66468 
L 498.089854 536.045783 
L 503.961583 532.256532 
L 509.699988 528.300671 
L 515.299401 524.182108 
L 520.754289 519.904911 
L 526.059263 515.473306 
L 531.209084 510.89167 
L 536.198664 506.164529 
L 541.023074 501.296554 
L 545.677547 496.292553 
L 550.157487 491.157469 
L 554.458466 485.896375 
L 558.576238 480.514469 
L 562.506733 475.017067 
L 566.246069 469.4096 
L 569.790553 463.697607 
L 573.136681 457.886731 
L 576.28115 451.982712 
L 579.220853 445.991383 
L 581.952885 439.918662 
L 584.474547 433.770548 
L 586.78335 427.553115 
L 588.877011 421.272506 
L 590.753463 414.934923 
L 592.410852 408.546628 
L 593.847541 402.113932 
L 595.06211 395.64319 
L 596.05336 389.140792 
L 596.820311 382.613165 
L 597.362206 376.066754 
L 597.678509 369.508028 
L 597.770038 363.6 
L 597.770038 363.6 
" clip-path="url(#pc2e4b7f5bd)" style="fill: none; stroke: #7f7f7f; stroke-width: 1.5; stroke-linecap: square"/>
   </g>
   <g id="line2d_20">
    <path d="M 622.636364 363.6 
L 622.534886 356.988635 
L 622.230533 350.382561 
L 621.723549 343.787062 
L 621.014339 337.207418 
L 620.103471 330.648893 
L 618.991674 324.116735 
L 617.679837 317.61617 
L 616.16901 311.152401 
L 614.460402 304.7306 
L 612.555381 298.355906 
L 610.45547 292.033418 
L 608.16235 285.768198 
L 605.677856 279.565257 
L 603.003976 273.429559 
L 600.142849 267.366014 
L 596.746999 260.719265 
L 593.126165 254.174149 
L 589.283924 247.737131 
L 585.224072 241.41457 
L 580.950619 235.212712 
L 576.467786 229.137683 
L 571.780003 223.195485 
L 566.891901 217.391989 
L 561.808307 211.732926 
L 556.534244 206.223888 
L 551.074923 200.870316 
L 545.435735 195.677499 
L 539.622252 190.650568 
L 533.640217 185.794488 
L 527.495539 181.114056 
L 521.194289 176.613895 
L 514.74269 172.298452 
L 508.147117 168.17199 
L 501.414086 164.238584 
L 494.550246 160.502121 
L 487.56238 156.966291 
L 480.457389 153.634588 
L 473.242293 150.510303 
L 465.92422 147.596522 
L 458.510398 144.896124 
L 451.008152 142.411776 
L 443.424893 140.145933 
L 435.768111 138.100833 
L 428.045371 136.278495 
L 420.264302 134.680721 
L 412.432591 133.309089 
L 404.557974 132.164953 
L 396.64823 131.249445 
L 388.711174 130.563468 
L 380.754645 130.1077 
L 372.786504 129.882591 
L 364.814622 129.888364 
L 356.846875 130.125013 
L 348.891133 130.592304 
L 340.955256 131.289776 
L 333.047083 132.216739 
L 325.174427 133.372278 
L 317.345064 134.755251 
L 309.56673 136.364293 
L 301.847107 138.197813 
L 294.193823 140.254 
L 286.614436 142.530824 
L 279.116436 145.026034 
L 271.707228 147.737167 
L 264.394133 150.661543 
L 257.184374 153.796274 
L 250.085074 157.138263 
L 243.103246 160.684209 
L 236.245787 164.430608 
L 229.519471 168.373761 
L 222.930944 172.509771 
L 216.486712 176.834552 
L 210.193144 181.343834 
L 204.056456 186.033159 
L 198.082709 190.897898 
L 192.277806 195.933242 
L 186.647481 201.13422 
L 181.197295 206.495692 
L 175.932634 212.012362 
L 170.858697 217.67878 
L 165.980497 223.489349 
L 161.302854 229.438329 
L 156.830387 235.519843 
L 152.567515 241.727883 
L 148.51845 248.056316 
L 144.687191 254.498891 
L 141.077523 261.049243 
L 137.693012 267.700902 
L 134.842229 273.768583 
L 132.178816 279.908146 
L 129.704903 286.114678 
L 127.42247 292.383212 
L 125.333344 298.708733 
L 123.439196 305.086179 
L 121.741541 311.510446 
L 120.241739 317.976395 
L 118.94099 324.478852 
L 117.840333 331.012612 
L 116.940651 337.572448 
L 116.242663 344.153112 
L 115.746927 350.749336 
L 115.45384 357.355843 
L 115.363636 363.967347 
L 115.476389 370.578557 
L 115.792007 377.184182 
L 116.310238 383.778938 
L 117.030667 390.357547 
L 117.952719 396.914745 
L 119.075654 403.445285 
L 120.398575 409.943941 
L 121.920422 416.405514 
L 123.639979 422.824832 
L 125.555869 429.19676 
L 127.66656 435.516198 
L 129.970361 441.77809 
L 132.46543 447.977425 
L 135.14977 454.109243 
L 138.021234 460.168636 
L 141.428415 466.810458 
L 145.060406 473.350323 
L 148.91362 479.781768 
L 152.984249 486.098441 
L 157.268273 492.294102 
L 161.76146 498.362631 
L 166.45937 504.298032 
L 171.357364 510.094442 
L 176.450602 515.746135 
L 181.734053 521.247528 
L 187.202497 526.593186 
L 192.850534 531.777829 
L 198.672582 536.796334 
L 204.662891 541.643745 
L 210.815543 546.315272 
L 217.12446 550.8063 
L 223.583409 555.112394 
L 230.186011 559.229299 
L 236.925742 563.152948 
L 243.795945 566.879466 
L 250.789833 570.40517 
L 257.900496 573.726579 
L 265.120911 576.84041 
L 272.443944 579.743588 
L 279.862362 582.433246 
L 287.368836 584.906725 
L 294.95595 587.161582 
L 302.616209 589.195591 
L 310.342047 591.006741 
L 318.125831 592.593243 
L 325.959872 593.953531 
L 333.836431 595.08626 
L 341.747726 595.990312 
L 349.685943 596.664793 
L 357.643239 597.109037 
L 365.611754 597.322605 
L 373.583616 597.305286 
L 381.55095 597.057097 
L 389.505885 596.578284 
L 397.440563 595.86932 
L 405.347145 594.930904 
L 413.217821 593.763965 
L 421.044815 592.369653 
L 428.820396 590.749348 
L 436.536883 588.90465 
L 444.186651 586.837381 
L 451.762145 584.549583 
L 459.255881 582.043516 
L 466.660456 579.321656 
L 473.968555 576.386692 
L 481.17296 573.241522 
L 488.266552 569.889255 
L 495.242324 566.333202 
L 502.093386 562.576875 
L 508.812969 558.623986 
L 515.394435 554.478439 
L 521.831283 550.144329 
L 528.117154 545.625938 
L 534.245838 540.927731 
L 540.211281 536.054346 
L 546.00759 531.0106 
L 551.629039 525.801475 
L 557.070075 520.432116 
L 562.325322 514.907828 
L 567.389589 509.234068 
L 572.257874 503.416441 
L 576.925367 497.460693 
L 581.387457 491.37271 
L 585.639737 485.158504 
L 589.678005 478.824214 
L 593.498272 472.376098 
L 597.096765 465.820526 
L 600.469929 459.163973 
L 603.310361 453.092171 
L 605.963301 446.948758 
L 608.426627 440.738651 
L 610.698367 434.466819 
L 612.776703 428.13828 
L 614.659974 421.758099 
L 616.34667 415.33138 
L 617.835444 408.863267 
L 619.125103 402.358935 
L 620.214616 395.823588 
L 621.10311 389.262457 
L 621.789875 382.680791 
L 622.274362 376.083857 
L 622.556182 369.476933 
L 622.636364 363.6 
L 622.636364 363.6 
" clip-path="url(#pc2e4b7f5bd)" style="fill: none; stroke: #bcbd22; stroke-width: 1.5; stroke-linecap: square"/>
   </g>
   <g id="patch_3">
    <path d="M 90 620.717726 
L 90 106.482274 
" style="fill: none; stroke: #000000; stroke-width: 0.8; stroke-linejoin: miter; stroke-linecap: square"/>
   </g>
   <g id="patch_4">
    <path d="M 648 620.717726 
L 648 106.482274 
" style="fill: none; stroke: #000000; stroke-width: 0.8; stroke-linejoin: miter; stroke-linecap: square"/>
   </g>
   <g id="patch_5">
    <path d="M 90 620.717726 
L 648 620.717726 
" style="fill: none; stroke: #000000; stroke-width: 0.8; stroke-linejoin: miter; stroke-linecap: square"/>
   </g>
   <g id="patch_6">
    <path d="M 90 106.482274 
L 648 106.482274 
" style="fill: none; stroke: #000000; stroke-width: 0.8; stroke-linejoin: miter; stroke-linecap: square"/>
   </g>
   <g id="text_13">
    <!-- Ellipses Expanding to Bounding Ellipse with Scarf Joints -->
    <g transform="translate(202.986563 100.482274) scale(0.12 -0.12)">
     <defs>
      <path id="DejaVuSans-45" d="M 628 4666 
L 3578 4666 
L 3578 4134 
L 1259 4134 
L 1259 2753 
L 3481 2753 
L 3481 2222 
L 1259 2222 
L 1259 531 
L 3634 531 
L 3634 0 
L 628 0 
L 628 4666 
z
" transform="scale(0.015625)"/>
      <path id="DejaVuSans-6c" d="M 603 4863 
L 1178 4863 
L 1178 0 
L 603 0 
L 603 4863 
z
" transform="scale(0.015625)"/>
      <path id="DejaVuSans-69" d="M 603 3500 
L 1178 3500 
L 1178 0 
L 603 0 
L 603 3500 
z
M 603 4863 
L 1178 4863 
L 1178 4134 
L 603 4134 
L 603 4863 
z
" transform="scale(0.015625)"/>
      <path id="DejaVuSans-70" d="M 1159 525 
L 1159 -1331 
L 581 -1331 
L 581 3500 
L 1159 3500 
L 1159 2969 
Q 1341 3281 1617 3432 
Q 1894 3584 2278 3584 
Q 2916 3584 3314 3078 
Q 3713 2572 3713 1747 
Q 3713 922 3314 415 
Q 2916 -91 2278 -91 
Q 1894 -91 1617 61 
Q 1341 213 1159 525 
z
M 3116 1747 
Q 3116 2381 2855 2742 
Q 2594 3103 2138 3103 
Q 1681 3103 1420 2742 
Q 1159 2381 1159 1747 
Q 1159 1113 1420 752 
Q 1681 391 2138 391 
Q 2594 391 2855 752 
Q 3116 1113 3116 1747 
z
" transform="scale(0.015625)"/>
      <path id="DejaVuSans-73" d="M 2834 3397 
L 2834 2853 
Q 2591 2978 2328 3040 
Q 2066 3103 1784 3103 
Q 1356 3103 1142 2972 
Q 928 2841 928 2578 
Q 928 2378 1081 2264 
Q 1234 2150 1697 2047 
L 1894 2003 
Q 2506 1872 2764 1633 
Q 3022 1394 3022 966 
Q 3022 478 2636 193 
Q 2250 -91 1575 -91 
Q 1294 -91 989 -36 
Q 684 19 347 128 
L 347 722 
Q 666 556 975 473 
Q 1284 391 1588 391 
Q 1994 391 2212 530 
Q 2431 669 2431 922 
Q 2431 1156 2273 1281 
Q 2116 1406 1581 1522 
L 1381 1569 
Q 847 1681 609 1914 
Q 372 2147 372 2553 
Q 372 3047 722 3315 
Q 1072 3584 1716 3584 
Q 2034 3584 2315 3537 
Q 2597 3491 2834 3397 
z
" transform="scale(0.015625)"/>
      <path id="DejaVuSans-65" d="M 3597 1894 
L 3597 1613 
L 953 1613 
Q 991 1019 1311 708 
Q 1631 397 2203 397 
Q 2534 397 2845 478 
Q 3156 559 3463 722 
L 3463 178 
Q 3153 47 2828 -22 
Q 2503 -91 2169 -91 
Q 1331 -91 842 396 
Q 353 884 353 1716 
Q 353 2575 817 3079 
Q 1281 3584 2069 3584 
Q 2775 3584 3186 3129 
Q 3597 2675 3597 1894 
z
M 3022 2063 
Q 3016 2534 2758 2815 
Q 2500 3097 2075 3097 
Q 1594 3097 1305 2825 
Q 1016 2553 972 2059 
L 3022 2063 
z
" transform="scale(0.015625)"/>
      <path id="DejaVuSans-20" transform="scale(0.015625)"/>
      <path id="DejaVuSans-78" d="M 3513 3500 
L 2247 1797 
L 3578 0 
L 2900 0 
L 1881 1375 
L 863 0 
L 184 0 
L 1544 1831 
L 300 3500 
L 978 3500 
L 1906 2253 
L 2834 3500 
L 3513 3500 
z
" transform="scale(0.015625)"/>
      <path id="DejaVuSans-61" d="M 2194 1759 
Q 1497 1759 1228 1600 
Q 959 1441 959 1056 
Q 959 750 1161 570 
Q 1363 391 1709 391 
Q 2188 391 2477 730 
Q 2766 1069 2766 1631 
L 2766 1759 
L 2194 1759 
z
M 3341 1997 
L 3341 0 
L 2766 0 
L 2766 531 
Q 2569 213 2275 61 
Q 1981 -91 1556 -91 
Q 1019 -91 701 211 
Q 384 513 384 1019 
Q 384 1609 779 1909 
Q 1175 2209 1959 2209 
L 2766 2209 
L 2766 2266 
Q 2766 2663 2505 2880 
Q 2244 3097 1772 3097 
Q 1472 3097 1187 3025 
Q 903 2953 641 2809 
L 641 3341 
Q 956 3463 1253 3523 
Q 1550 3584 1831 3584 
Q 2591 3584 2966 3190 
Q 3341 2797 3341 1997 
z
" transform="scale(0.015625)"/>
      <path id="DejaVuSans-6e" d="M 3513 2113 
L 3513 0 
L 2938 0 
L 2938 2094 
Q 2938 2591 2744 2837 
Q 2550 3084 2163 3084 
Q 1697 3084 1428 2787 
Q 1159 2491 1159 1978 
L 1159 0 
L 581 0 
L 581 3500 
L 1159 3500 
L 1159 2956 
Q 1366 3272 1645 3428 
Q 1925 3584 2291 3584 
Q 2894 3584 3203 3211 
Q 3513 2838 3513 2113 
z
" transform="scale(0.015625)"/>
      <path id="DejaVuSans-64" d="M 2906 2969 
L 2906 4863 
L 3481 4863 
L 3481 0 
L 2906 0 
L 2906 525 
Q 2725 213 2448 61 
Q 2172 -91 1784 -91 
Q 1150 -91 751 415 
Q 353 922 353 1747 
Q 353 2572 751 3078 
Q 1150 3584 1784 3584 
Q 2172 3584 2448 3432 
Q 2725 3281 2906 2969 
z
M 947 1747 
Q 947 1113 1208 752 
Q 1469 391 1925 391 
Q 2381 391 2643 752 
Q 2906 1113 2906 1747 
Q 2906 2381 2643 2742 
Q 2381 3103 1925 3103 
Q 1469 3103 1208 2742 
Q 947 2381 947 1747 
z
" transform="scale(0.015625)"/>
      <path id="DejaVuSans-67" d="M 2906 1791 
Q 2906 2416 2648 2759 
Q 2391 3103 1925 3103 
Q 1463 3103 1205 2759 
Q 947 2416 947 1791 
Q 947 1169 1205 825 
Q 1463 481 1925 481 
Q 2391 481 2648 825 
Q 2906 1169 2906 1791 
z
M 3481 434 
Q 3481 -459 3084 -895 
Q 2688 -1331 1869 -1331 
Q 1566 -1331 1297 -1286 
Q 1028 -1241 775 -1147 
L 775 -588 
Q 1028 -725 1275 -790 
Q 1522 -856 1778 -856 
Q 2344 -856 2625 -561 
Q 2906 -266 2906 331 
L 2906 616 
Q 2728 306 2450 153 
Q 2172 0 1784 0 
Q 1141 0 747 490 
Q 353 981 353 1791 
Q 353 2603 747 3093 
Q 1141 3584 1784 3584 
Q 2172 3584 2450 3431 
Q 2728 3278 2906 2969 
L 2906 3500 
L 3481 3500 
L 3481 434 
z
" transform="scale(0.015625)"/>
      <path id="DejaVuSans-74" d="M 1172 4494 
L 1172 3500 
L 2356 3500 
L 2356 3053 
L 1172 3053 
L 1172 1153 
Q 1172 725 1289 603 
Q 1406 481 1766 481 
L 2356 481 
L 2356 0 
L 1766 0 
Q 1100 0 847 248 
Q 594 497 594 1153 
L 594 3053 
L 172 3053 
L 172 3500 
L 594 3500 
L 594 4494 
L 1172 4494 
z
" transform="scale(0.015625)"/>
      <path id="DejaVuSans-6f" d="M 1959 3097 
Q 1497 3097 1228 2736 
Q 959 2375 959 1747 
Q 959 1119 1226 758 
Q 1494 397 1959 397 
Q 2419 397 2687 759 
Q 2956 1122 2956 1747 
Q 2956 2369 2687 2733 
Q 2419 3097 1959 3097 
z
M 1959 3584 
Q 2709 3584 3137 3096 
Q 3566 2609 3566 1747 
Q 3566 888 3137 398 
Q 2709 -91 1959 -91 
Q 1206 -91 779 398 
Q 353 888 353 1747 
Q 353 2609 779 3096 
Q 1206 3584 1959 3584 
z
" transform="scale(0.015625)"/>
      <path id="DejaVuSans-42" d="M 1259 2228 
L 1259 519 
L 2272 519 
Q 2781 519 3026 730 
Q 3272 941 3272 1375 
Q 3272 1813 3026 2020 
Q 2781 2228 2272 2228 
L 1259 2228 
z
M 1259 4147 
L 1259 2741 
L 2194 2741 
Q 2656 2741 2882 2914 
Q 3109 3088 3109 3444 
Q 3109 3797 2882 3972 
Q 2656 4147 2194 4147 
L 1259 4147 
z
M 628 4666 
L 2241 4666 
Q 2963 4666 3353 4366 
Q 3744 4066 3744 3513 
Q 3744 3084 3544 2831 
Q 3344 2578 2956 2516 
Q 3422 2416 3680 2098 
Q 3938 1781 3938 1306 
Q 3938 681 3513 340 
Q 3088 0 2303 0 
L 628 0 
L 628 4666 
z
" transform="scale(0.015625)"/>
      <path id="DejaVuSans-75" d="M 544 1381 
L 544 3500 
L 1119 3500 
L 1119 1403 
Q 1119 906 1312 657 
Q 1506 409 1894 409 
Q 2359 409 2629 706 
Q 2900 1003 2900 1516 
L 2900 3500 
L 3475 3500 
L 3475 0 
L 2900 0 
L 2900 538 
Q 2691 219 2414 64 
Q 2138 -91 1772 -91 
Q 1169 -91 856 284 
Q 544 659 544 1381 
z
M 1991 3584 
L 1991 3584 
z
" transform="scale(0.015625)"/>
      <path id="DejaVuSans-77" d="M 269 3500 
L 844 3500 
L 1563 769 
L 2278 3500 
L 2956 3500 
L 3675 769 
L 4391 3500 
L 4966 3500 
L 4050 0 
L 3372 0 
L 2619 2869 
L 1863 0 
L 1184 0 
L 269 3500 
z
" transform="scale(0.015625)"/>
      <path id="DejaVuSans-68" d="M 3513 2113 
L 3513 0 
L 2938 0 
L 2938 2094 
Q 2938 2591 2744 2837 
Q 2550 3084 2163 3084 
Q 1697 3084 1428 2787 
Q 1159 2491 1159 1978 
L 1159 0 
L 581 0 
L 581 4863 
L 1159 4863 
L 1159 2956 
Q 1366 3272 1645 3428 
Q 1925 3584 2291 3584 
Q 2894 3584 3203 3211 
Q 3513 2838 3513 2113 
z
" transform="scale(0.015625)"/>
      <path id="DejaVuSans-53" d="M 3425 4513 
L 3425 3897 
Q 3066 4069 2747 4153 
Q 2428 4238 2131 4238 
Q 1616 4238 1336 4038 
Q 1056 3838 1056 3469 
Q 1056 3159 1242 3001 
Q 1428 2844 1947 2747 
L 2328 2669 
Q 3034 2534 3370 2195 
Q 3706 1856 3706 1288 
Q 3706 609 3251 259 
Q 2797 -91 1919 -91 
Q 1588 -91 1214 -16 
Q 841 59 441 206 
L 441 856 
Q 825 641 1194 531 
Q 1563 422 1919 422 
Q 2459 422 2753 634 
Q 3047 847 3047 1241 
Q 3047 1584 2836 1778 
Q 2625 1972 2144 2069 
L 1759 2144 
Q 1053 2284 737 2584 
Q 422 2884 422 3419 
Q 422 4038 858 4394 
Q 1294 4750 2059 4750 
Q 2388 4750 2728 4690 
Q 3069 4631 3425 4513 
z
" transform="scale(0.015625)"/>
      <path id="DejaVuSans-63" d="M 3122 3366 
L 3122 2828 
Q 2878 2963 2633 3030 
Q 2388 3097 2138 3097 
Q 1578 3097 1268 2742 
Q 959 2388 959 1747 
Q 959 1106 1268 751 
Q 1578 397 2138 397 
Q 2388 397 2633 464 
Q 2878 531 3122 666 
L 3122 134 
Q 2881 22 2623 -34 
Q 2366 -91 2075 -91 
Q 1284 -91 818 406 
Q 353 903 353 1747 
Q 353 2603 823 3093 
Q 1294 3584 2113 3584 
Q 2378 3584 2631 3529 
Q 2884 3475 3122 3366 
z
" transform="scale(0.015625)"/>
      <path id="DejaVuSans-72" d="M 2631 2963 
Q 2534 3019 2420 3045 
Q 2306 3072 2169 3072 
Q 1681 3072 1420 2755 
Q 1159 2438 1159 1844 
L 1159 0 
L 581 0 
L 581 3500 
L 1159 3500 
L 1159 2956 
Q 1341 3275 1631 3429 
Q 1922 3584 2338 3584 
Q 2397 3584 2469 3576 
Q 2541 3569 2628 3553 
L 2631 2963 
z
" transform="scale(0.015625)"/>
      <path id="DejaVuSans-66" d="M 2375 4863 
L 2375 4384 
L 1825 4384 
Q 1516 4384 1395 4259 
Q 1275 4134 1275 3809 
L 1275 3500 
L 2222 3500 
L 2222 3053 
L 1275 3053 
L 1275 0 
L 697 0 
L 697 3053 
L 147 3053 
L 147 3500 
L 697 3500 
L 697 3744 
Q 697 4328 969 4595 
Q 1241 4863 1831 4863 
L 2375 4863 
z
" transform="scale(0.015625)"/>
      <path id="DejaVuSans-4a" d="M 628 4666 
L 1259 4666 
L 1259 325 
Q 1259 -519 939 -900 
Q 619 -1281 -91 -1281 
L -331 -1281 
L -331 -750 
L -134 -750 
Q 284 -750 456 -515 
Q 628 -281 628 325 
L 628 4666 
z
" transform="scale(0.015625)"/>
     </defs>
     <use xlink:href="#DejaVuSans-45"/>
     <use xlink:href="#DejaVuSans-6c" transform="translate(63.183594 0)"/>
     <use xlink:href="#DejaVuSans-6c" transform="translate(90.966797 0)"/>
     <use xlink:href="#DejaVuSans-69" transform="translate(118.75 0)"/>
     <use xlink:href="#DejaVuSans-70" transform="translate(146.533203 0)"/>
     <use xlink:href="#DejaVuSans-73" transform="translate(210.009766 0)"/>
     <use xlink:href="#DejaVuSans-65" transform="translate(262.109375 0)"/>
     <use xlink:href="#DejaVuSans-73" transform="translate(323.632812 0)"/>
     <use xlink:href="#DejaVuSans-20" transform="translate(375.732422 0)"/>
     <use xlink:href="#DejaVuSans-45" transform="translate(407.519531 0)"/>
     <use xlink:href="#DejaVuSans-78" transform="translate(470.703125 0)"/>
     <use xlink:href="#DejaVuSans-70" transform="translate(529.882812 0)"/>
     <use xlink:href="#DejaVuSans-61" transform="translate(593.359375 0)"/>
     <use xlink:href="#DejaVuSans-6e" transform="translate(654.638672 0)"/>
     <use xlink:href="#DejaVuSans-64" transform="translate(718.017578 0)"/>
     <use xlink:href="#DejaVuSans-69" transform="translate(781.494141 0)"/>
     <use xlink:href="#DejaVuSans-6e" transform="translate(809.277344 0)"/>
     <use xlink:href="#DejaVuSans-67" transform="translate(872.65625 0)"/>
     <use xlink:href="#DejaVuSans-20" transform="translate(936.132812 0)"/>
     <use xlink:href="#DejaVuSans-74" transform="translate(967.919922 0)"/>
     <use xlink:href="#DejaVuSans-6f" transform="translate(1007.128906 0)"/>
     <use xlink:href="#DejaVuSans-20" transform="translate(1068.310547 0)"/>
     <use xlink:href="#DejaVuSans-42" transform="translate(1100.097656 0)"/>
     <use xlink:href="#DejaVuSans-6f" transform="translate(1168.701172 0)"/>
     <use xlink:href="#DejaVuSans-75" transform="translate(1229.882812 0)"/>
     <use xlink:href="#DejaVuSans-6e" transform="translate(1293.261719 0)"/>
     <use xlink:href="#DejaVuSans-64" transform="translate(1356.640625 0)"/>
     <use xlink:href="#DejaVuSans-69" transform="translate(1420.117188 0)"/>
     <use xlink:href="#DejaVuSans-6e" transform="translate(1447.900391 0)"/>
     <use xlink:href="#DejaVuSans-67" transform="translate(1511.279297 0)"/>
     <use xlink:href="#DejaVuSans-20" transform="translate(1574.755859 0)"/>
     <use xlink:href="#DejaVuSans-45" transform="translate(1606.542969 0)"/>
     <use xlink:href="#DejaVuSans-6c" transform="translate(1669.726562 0)"/>
     <use xlink:href="#DejaVuSans-6c" transform="translate(1697.509766 0)"/>
     <use xlink:href="#DejaVuSans-69" transform="translate(1725.292969 0)"/>
     <use xlink:href="#DejaVuSans-70" transform="translate(1753.076172 0)"/>
     <use xlink:href="#DejaVuSans-73" transform="translate(1816.552734 0)"/>
     <use xlink:href="#DejaVuSans-65" transform="translate(1868.652344 0)"/>
     <use xlink:href="#DejaVuSans-20" transform="translate(1930.175781 0)"/>
     <use xlink:href="#DejaVuSans-77" transform="translate(1961.962891 0)"/>
     <use xlink:href="#DejaVuSans-69" transform="translate(2043.75 0)"/>
     <use xlink:href="#DejaVuSans-74" transform="translate(2071.533203 0)"/>
     <use xlink:href="#DejaVuSans-68" transform="translate(2110.742188 0)"/>
     <use xlink:href="#DejaVuSans-20" transform="translate(2174.121094 0)"/>
     <use xlink:href="#DejaVuSans-53" transform="translate(2205.908203 0)"/>
     <use xlink:href="#DejaVuSans-63" transform="translate(2269.384766 0)"/>
     <use xlink:href="#DejaVuSans-61" transform="translate(2324.365234 0)"/>
     <use xlink:href="#DejaVuSans-72" transform="translate(2385.644531 0)"/>
     <use xlink:href="#DejaVuSans-66" transform="translate(2426.757812 0)"/>
     <use xlink:href="#DejaVuSans-20" transform="translate(2461.962891 0)"/>
     <use xlink:href="#DejaVuSans-4a" transform="translate(2493.75 0)"/>
     <use xlink:href="#DejaVuSans-6f" transform="translate(2523.242188 0)"/>
     <use xlink:href="#DejaVuSans-69" transform="translate(2584.423828 0)"/>
     <use xlink:href="#DejaVuSans-6e" transform="translate(2612.207031 0)"/>
     <use xlink:href="#DejaVuSans-74" transform="translate(2675.585938 0)"/>
     <use xlink:href="#DejaVuSans-73" transform="translate(2714.794922 0)"/>
    </g>
   </g>
  </g>
 </g>
 <defs>
  <clipPath id="pc2e4b7f5bd">
   <rect x="90" y="106.482274" width="558" height="514.235453"/>
  </clipPath>
 </defs>
</svg>
