<?xml version="1.0" encoding="utf-8" standalone="no"?>
<!DOCTYPE svg PUBLIC "-//W3C//DTD SVG 1.1//EN"
  "http://www.w3.org/Graphics/SVG/1.1/DTD/svg11.dtd">
<svg xmlns:xlink="http://www.w3.org/1999/xlink" width="728.64pt" height="339.549954pt" viewBox="0 0 728.64 339.549954" xmlns="http://www.w3.org/2000/svg" version="1.1">
 <metadata>
  <rdf:RDF xmlns:dc="http://purl.org/dc/elements/1.1/" xmlns:cc="http://creativecommons.org/ns#" xmlns:rdf="http://www.w3.org/1999/02/22-rdf-syntax-ns#">
   <cc:Work>
    <dc:type rdf:resource="http://purl.org/dc/dcmitype/StillImage"/>
    <dc:date>2025-03-20T15:09:57.067897</dc:date>
    <dc:format>image/svg+xml</dc:format>
    <dc:creator>
     <cc:Agent>
      <dc:title>Matplotlib v3.10.1, https://matplotlib.org/</dc:title>
     </cc:Agent>
    </dc:creator>
   </cc:Work>
  </rdf:RDF>
 </metadata>
 <defs>
  <style type="text/css">*{stroke-linejoin: round; stroke-linecap: butt}</style>
 </defs>
 <g id="figure_1">
  <g id="patch_1">
   <path d="M 0 339.549954 
L 728.64 339.549954 
L 728.64 0 
L 0 0 
z
" style="fill: #ffffff"/>
  </g>
  <g id="axes_1">
   <g id="line2d_1">
    <path d="M 557.249345 161.566306 
L 557.221886 161.336153 
L 556.923129 161.078282 
L 556.155506 160.74654 
L 554.452815 160.289258 
L 551.392488 159.720571 
L 546.235605 159.009448 
L 538.473455 158.17691 
L 527.467289 157.227325 
L 512.594822 156.174885 
L 493.768472 155.071791 
L 471.286865 153.980239 
L 445.267935 152.945954 
L 417.209537 152.057117 
L 388.366597 151.363242 
L 358.797999 150.8757 
L 330.401569 150.627573 
L 303.108336 150.611001 
L 277.97669 150.816493 
L 255.288971 151.220393 
L 235.199334 151.794915 
L 217.751829 152.50997 
L 202.899467 153.334745 
L 190.523128 154.239003 
L 180.449425 155.194082 
L 172.727632 156.137234 
L 166.766712 157.07628 
L 162.327134 157.99175 
L 159.30058 158.824608 
L 157.251619 159.600849 
L 155.973498 160.310102 
L 155.314332 160.898483 
L 155.009108 161.45035 
L 154.985692 161.962923 
L 155.207759 162.481266 
L 155.729922 163.052573 
L 156.624655 163.677423 
L 158.08079 164.404689 
L 160.276593 165.234998 
L 163.41002 166.167621 
L 167.695597 167.199882 
L 173.360025 168.326494 
L 180.636275 169.538822 
L 189.75593 170.824087 
L 200.939572 172.164551 
L 213.928503 173.493581 
L 229.249285 174.830145 
L 246.476527 176.102754 
L 265.551686 177.282441 
L 285.760054 178.309911 
L 307.505912 179.190117 
L 329.950176 179.873194 
L 352.822871 180.344082 
L 375.190648 180.58636 
L 397.447042 180.607367 
L 418.70108 180.409926 
L 439.380414 179.994308 
L 458.672261 179.381932 
L 476.458636 178.593405 
L 492.662366 177.650465 
L 506.759568 176.615066 
L 519.307831 175.479708 
L 530.33353 174.26495 
L 539.884797 172.990484 
L 547.709109 171.73141 
L 554.289231 170.454743 
L 559.475799 169.237317 
L 563.680884 168.0347 
L 567.000723 166.857599 
L 569.399809 165.783321 
L 571.170931 164.754663 
L 572.32813 163.848048 
L 573.08285 163.000053 
L 573.509118 162.214386 
L 573.66841 161.566306 
L 573.66841 161.566306 
" clip-path="url(#p21c06bfd7a)" style="fill: none; stroke: #000000; stroke-width: 1.5; stroke-linecap: square"/>
   </g>
   <g id="line2d_2">
    <path d="M 573.66841 161.566306 
L 573.645077 160.841334 
L 573.410746 160.111918 
L 572.90937 159.305298 
L 572.071798 158.421375 
L 570.823269 157.460569 
L 569.083865 156.423962 
L 566.769132 155.31346 
L 563.790862 154.131959 
L 559.820486 152.810397 
L 554.930222 151.429018 
L 549.024472 149.995822 
L 542.01055 148.520743 
L 533.407434 146.948547 
L 523.449157 145.366127 
L 512.068964 143.791953 
L 499.21622 142.247238 
L 484.860143 140.755982 
L 469.576232 139.392815 
L 452.862078 138.127804 
L 435.394295 137.026911 
L 416.650995 136.072291 
L 397.397288 135.318061 
L 377.792184 134.774342 
L 357.997962 134.449568 
L 338.178833 134.350384 
L 319.174047 134.473165 
L 300.447276 134.813271 
L 282.144298 135.371531 
L 265.030019 136.115588 
L 249.163766 137.02073 
L 234.008748 138.107395 
L 220.203001 139.318937 
L 207.738056 140.630627 
L 196.585374 142.018852 
L 186.699663 143.461374 
L 177.627999 145.010135 
L 169.769229 146.581739 
L 163.04473 148.157563 
L 157.369008 149.72085 
L 152.897009 151.170058 
L 149.223781 152.573995 
L 146.260964 153.922365 
L 143.77076 155.298967 
L 141.878338 156.606679 
L 140.498066 157.838574 
L 139.54855 158.988964 
L 138.953338 160.053256 
L 138.641462 161.027812 
L 138.548387 162.00806 
L 138.674368 162.993035 
L 139.019442 163.981757 
L 139.651857 165.072502 
L 140.548612 166.165264 
L 141.827354 167.3581 
L 143.564702 168.649234 
L 145.842269 170.03591 
L 148.537572 171.415941 
L 151.883497 172.883993 
L 155.967156 174.434086 
L 160.877479 176.058591 
L 166.703818 177.747999 
L 173.534303 179.490709 
L 181.453925 181.272806 
L 190.542326 183.077865 
L 200.384532 184.806509 
L 211.458376 186.526205 
L 223.814909 188.214102 
L 236.905671 189.779407 
L 251.275631 191.27149 
L 266.291233 192.609035 
L 282.528016 193.827635 
L 299.27453 194.858274 
L 316.428206 195.692182 
L 333.883769 196.321749 
L 351.533887 196.74059 
L 369.269828 196.943593 
L 386.982134 196.926973 
L 404.561291 196.68831 
L 421.898413 196.226573 
L 438.214455 195.573786 
L 454.114775 194.717345 
L 468.877984 193.708063 
L 483.097533 192.517815 
L 496.120664 191.214141 
L 508.514247 189.753836 
L 519.701763 188.218961 
L 530.210943 186.552077 
L 539.546128 184.847523 
L 547.770747 183.127884 
L 555.337289 181.316063 
L 561.873233 179.519871 
L 567.461116 177.757075 
L 572.185949 176.043323 
L 576.133446 174.392241 
L 579.60495 172.701704 
L 582.408288 171.091433 
L 584.628547 169.570824 
L 586.347186 168.147691 
L 587.74542 166.707868 
L 588.743724 165.375084 
L 589.469484 164.03153 
L 589.891841 162.802108 
L 590.087476 161.566306 
L 590.087476 161.566306 
" clip-path="url(#p21c06bfd7a)" style="fill: none; stroke: #000000; stroke-width: 1.5; stroke-linecap: square"/>
   </g>
   <g id="line2d_3">
    <path d="M 590.087476 161.566306 
L 590.056033 160.325341 
L 589.79738 159.080441 
L 589.311612 157.832846 
L 588.599047 156.583799 
L 587.553928 155.209665 
L 586.236081 153.836962 
L 584.488995 152.343075 
L 582.234463 150.731408 
L 579.606945 149.129429 
L 576.364838 147.418242 
L 572.423013 145.604801 
L 568.004994 143.816162 
L 562.778089 141.940353 
L 556.656628 139.989111 
L 549.966567 138.086796 
L 542.283726 136.132428 
L 533.531286 134.143658 
L 524.14855 132.238731 
L 513.626973 130.332425 
L 502.483878 128.535865 
L 490.162014 126.776446 
L 477.255354 125.155825 
L 463.167272 123.615971 
L 448.564732 122.246466 
L 433.516823 121.055431 
L 418.09487 120.050178 
L 401.651489 119.204874 
L 384.964816 118.576024 
L 368.121744 118.168864 
L 351.210121 117.987488 
L 334.318298 118.034818 
L 317.534664 118.312572 
L 301.663117 118.794339 
L 286.04728 119.486777 
L 270.762282 120.388234 
L 256.54837 121.441237 
L 242.765556 122.679026 
L 229.474572 124.097537 
L 217.327462 125.61204 
L 205.728436 127.281094 
L 195.259532 129.004767 
L 185.365463 130.857558 
L 176.555106 132.726655 
L 168.321975 134.701038 
L 161.100702 136.657235 
L 154.43976 138.697088 
L 148.700158 140.688527 
L 143.79937 142.614255 
L 139.37484 144.592709 
L 135.684106 146.483146 
L 132.643174 148.27335 
L 129.979686 150.094111 
L 127.860244 151.799389 
L 126.069786 153.525831 
L 124.719956 155.124944 
L 123.650767 156.737945 
L 122.923573 158.21476 
L 122.430431 159.700036 
L 122.171991 161.192314 
L 122.148671 162.690124 
L 122.360656 164.191984 
L 122.807899 165.696406 
L 123.49012 167.20189 
L 124.406806 168.706935 
L 125.685072 170.360174 
L 127.24482 172.009043 
L 129.265441 173.800459 
L 131.616474 175.581663 
L 134.532709 177.49675 
L 137.828574 179.393482 
L 141.796581 181.411816 
L 146.191593 183.400966 
L 151.365153 185.495225 
L 157.401208 187.68153 
L 163.957145 189.812988 
L 171.474519 192.011126 
L 179.539868 194.1341 
L 188.651993 196.292729 
L 198.324852 198.352179 
L 209.109914 200.410415 
L 220.44824 202.341864 
L 232.300075 204.138754 
L 245.284656 205.876797 
L 258.741429 207.449641 
L 272.617816 208.849911 
L 286.859508 210.070885 
L 302.145337 211.153332 
L 317.706187 212.025284 
L 333.474596 212.681477 
L 349.382107 213.117565 
L 365.359552 213.330152 
L 381.337365 213.31681 
L 397.245876 213.0761 
L 413.015618 212.607577 
L 427.842305 211.950073 
L 442.421677 211.087782 
L 456.695738 210.022878 
L 470.607622 208.75836 
L 483.437867 207.375648 
L 495.844859 205.820181 
L 507.783769 204.096565 
L 518.623357 202.313297 
L 528.968759 200.388782 
L 538.255223 198.446401 
L 547.043702 196.387878 
L 555.308516 194.218558 
L 562.587092 192.080728 
L 569.361391 189.854814 
L 575.238563 187.692702 
L 580.643428 185.462332 
L 585.250803 183.323219 
L 589.426524 181.132699 
L 592.910033 179.056173 
L 596.007865 176.942179 
L 598.520309 174.960503 
L 600.695581 172.952562 
L 602.390499 171.091263 
L 603.797027 169.212425 
L 604.823832 167.491033 
L 605.609551 165.758654 
L 606.153249 164.016987 
L 606.454224 162.26774 
L 606.506541 161.566306 
L 606.506541 161.566306 
" clip-path="url(#p21c06bfd7a)" style="fill: none; stroke: #000000; stroke-width: 1.5; stroke-linecap: square"/>
   </g>
   <g id="line2d_4">
    <path d="M 606.506541 161.566306 
L 606.466988 159.809347 
L 606.184014 158.048965 
L 605.657737 156.286905 
L 604.888514 154.52492 
L 603.876945 152.76477 
L 602.623867 151.008216 
L 600.967834 149.082263 
L 599.022653 147.165142 
L 596.573362 145.08656 
L 593.7857 143.02431 
L 590.663365 140.98141 
L 586.908026 138.793588 
L 582.770763 136.635788 
L 577.895693 134.34988 
L 572.594368 132.107771 
L 566.452605 129.759294 
L 559.846058 127.471843 
L 552.302835 125.105239 
L 544.26555 122.820601 
L 535.206777 120.489925 
L 525.637924 118.265993 
L 515.585758 116.155732 
L 504.446834 114.052602 
L 492.832749 112.091826 
L 480.780141 110.280467 
L 468.327099 108.625133 
L 454.791374 107.05388 
L 440.901225 105.669923 
L 426.705787 104.479238 
L 412.255345 103.487132 
L 397.601155 102.698224 
L 382.795269 102.116421 
L 367.890341 101.744901 
L 352.939447 101.5861 
L 337.995892 101.641696 
L 323.113023 101.9126 
L 308.344035 102.398953 
L 293.741783 103.100114 
L 279.358592 104.014664 
L 265.246072 105.140406 
L 252.171958 106.399026 
L 239.428511 107.841369 
L 227.056942 109.463661 
L 215.097317 111.261528 
L 204.215346 113.11626 
L 193.766974 115.11852 
L 183.782534 117.263207 
L 174.835242 119.406887 
L 166.347746 121.666871 
L 158.827851 123.886547 
L 151.748527 126.199216 
L 145.12595 128.60006 
L 139.370369 130.91596 
L 134.037424 133.300028 
L 129.473215 135.570992 
L 125.290612 137.893297 
L 121.496924 140.263207 
L 118.346026 142.489759 
L 115.536946 144.750534 
L 113.265884 146.850297 
L 111.288558 148.973727 
L 109.607542 151.11833 
L 108.338349 153.084221 
L 107.317295 155.063607 
L 106.54555 157.054552 
L 106.024036 159.055104 
L 105.769188 160.862189 
L 105.717901 162.674019 
L 105.870336 164.489144 
L 106.226489 166.306107 
L 106.860933 168.325334 
L 107.746206 170.343018 
L 108.881594 172.357147 
L 110.266135 174.365705 
L 111.898621 176.366679 
L 113.97899 178.55659 
L 116.35533 180.73222 
L 119.282153 183.086222 
L 122.554168 185.416624 
L 126.166986 187.720016 
L 130.459785 190.180951 
L 135.139974 192.601956 
L 140.200058 194.978826 
L 146.064882 197.484423 
L 152.34987 199.928944 
L 159.536614 202.474635 
L 167.176593 204.938504 
L 175.25325 207.314724 
L 184.329877 209.746387 
L 193.860885 212.065276 
L 203.822616 214.265034 
L 214.851174 216.464949 
L 226.306988 218.516593 
L 238.157791 220.413438 
L 250.37015 222.149381 
L 263.65661 223.805769 
L 277.267585 225.269252 
L 291.159849 226.534261 
L 305.289223 227.595844 
L 319.61072 228.449685 
L 334.078685 229.092123 
L 348.646941 229.520163 
L 363.268937 229.731493 
L 377.897898 229.724491 
L 392.48697 229.498234 
L 406.989377 229.052504 
L 421.358565 228.387793 
L 435.548353 227.505303 
L 449.513085 226.406947 
L 462.454796 225.173749 
L 475.11839 223.753111 
L 487.467386 222.148366 
L 499.466163 220.363388 
L 511.080062 218.402589 
L 521.629103 216.400933 
L 531.780371 214.25243 
L 541.507773 211.962002 
L 550.219966 209.690539 
L 558.517844 207.303659 
L 566.382557 204.8063 
L 573.316336 202.380344 
L 579.843394 199.867112 
L 585.950725 197.271221 
L 591.23531 194.790924 
L 596.138323 192.247454 
L 600.651261 189.644895 
L 604.464022 187.193716 
L 607.932025 184.699146 
L 610.803719 182.377287 
L 613.377712 180.024577 
L 615.650717 177.643769 
L 617.453428 175.457365 
L 619.003028 173.252174 
L 620.297824 171.030345 
L 621.336379 168.794049 
L 622.117504 166.545477 
L 622.599639 164.51309 
L 622.871992 162.474166 
L 622.925607 161.566306 
L 622.925607 161.566306 
" clip-path="url(#p21c06bfd7a)" style="fill: none; stroke: #000000; stroke-width: 1.5; stroke-linecap: square"/>
   </g>
   <g id="line2d_5">
    <path d="M 622.925607 161.566306 
L 622.894394 159.520818 
L 622.652875 157.472786 
L 622.201125 155.423855 
L 621.539388 153.375673 
L 620.55835 151.1028 
L 619.319389 148.835155 
L 617.823569 146.575004 
L 616.072208 144.324611 
L 613.852445 141.863144 
L 611.327829 139.419214 
L 608.501171 136.995804 
L 605.375646 134.595879 
L 601.629286 132.008025 
L 597.536532 129.455413 
L 593.102951 126.941794 
L 587.922326 124.267001 
L 582.357158 121.646955 
L 576.416432 119.086214 
L 569.609775 116.399949 
L 562.391548 113.793117 
L 554.77538 111.271046 
L 546.189997 108.668763 
L 537.183035 106.175887 
L 527.774137 103.798356 
L 517.318133 101.395877 
L 506.454245 99.137718 
L 495.209566 97.030133 
L 483.612175 95.079016 
L 471.691074 93.289879 
L 458.703617 91.572125 
L 445.421188 90.048642 
L 431.881425 88.724528 
L 418.122743 87.604324 
L 404.184222 86.691999 
L 390.105497 85.990941 
L 375.926644 85.50394 
L 361.688069 85.233179 
L 347.43039 85.180229 
L 333.194323 85.346037 
L 319.020564 85.730924 
L 304.949673 86.334582 
L 291.021959 87.156072 
L 277.277365 88.193823 
L 263.75535 89.445638 
L 251.266891 90.816843 
L 239.041862 92.372319 
L 227.111462 94.108734 
L 215.506174 96.022282 
L 204.255687 98.108691 
L 194.056229 100.217498 
L 184.216943 102.469836 
L 174.760046 104.861122 
L 165.706923 107.386447 
L 157.63974 109.859744 
L 149.95811 112.440766 
L 142.677246 115.124802 
L 136.287936 117.705057 
L 130.26761 120.365786 
L 124.62662 123.10274 
L 119.76466 125.693019 
L 115.241378 128.340955 
L 111.063459 131.042904 
L 107.237103 133.795134 
L 104.04333 136.358927 
L 101.153786 138.958776 
L 98.572133 141.591638 
L 96.495132 144.011197 
L 94.677522 146.453135 
L 93.121258 148.915071 
L 91.828036 151.394604 
L 90.799294 153.889305 
L 90.100536 156.145484 
L 89.617642 158.410173 
L 89.351116 160.681566 
L 89.301289 162.957848 
L 89.46832 165.237198 
L 89.852194 167.517788 
L 90.45272 169.797786 
L 91.269537 172.075358 
L 92.302109 174.348666 
L 93.701587 176.867331 
L 95.365327 179.375951 
L 97.291843 181.872013 
L 99.47939 184.353014 
L 102.184782 187.061743 
L 105.200563 189.745929 
L 108.523332 192.402292 
L 112.149318 195.027578 
L 116.445889 197.852297 
L 121.092526 200.63206 
L 126.08287 203.362782 
L 131.868976 206.26106 
L 138.041049 209.092037 
L 144.589081 211.850786 
L 151.502427 214.53249 
L 159.34318 217.328927 
L 167.579693 220.024852 
L 176.196338 222.614737 
L 185.176742 225.093246 
L 195.182828 227.619369 
L 205.564963 230.005703 
L 216.300393 232.2465 
L 227.365558 234.336323 
L 239.504432 236.393299 
L 251.96041 238.266892 
L 264.702274 239.95176 
L 277.69805 241.443026 
L 290.915095 242.73629 
L 304.32017 243.827645 
L 317.879532 244.713683 
L 331.559012 245.391511 
L 345.324107 245.858756 
L 359.140062 246.113573 
L 372.971963 246.154655 
L 386.784818 245.981234 
L 400.543653 245.593084 
L 414.213597 244.990529 
L 427.75997 244.174437 
L 441.148372 243.146224 
L 454.34477 241.907849 
L 467.315584 240.461815 
L 480.027774 238.811159 
L 491.681731 237.080996 
L 503.053734 235.177478 
L 514.118237 233.104362 
L 524.850357 230.865792 
L 535.225925 228.466295 
L 544.567449 226.085892 
L 553.559615 223.57384 
L 562.184709 220.934676 
L 570.425717 218.1732 
L 577.719918 215.50386 
L 584.656439 212.737637 
L 591.223417 209.878932 
L 597.409597 206.932314 
L 602.772727 204.138416 
L 607.794456 201.27747 
L 612.467394 198.353414 
L 616.438614 195.621033 
L 620.106006 192.842192 
L 623.464984 190.020131 
L 626.511331 187.15815 
L 629.006202 184.524529 
L 631.236895 181.863245 
L 633.201051 179.176886 
L 634.896569 176.468073 
L 636.321617 173.73945 
L 637.371605 171.268959 
L 638.20028 168.786548 
L 638.806861 166.294192 
L 639.190745 163.793876 
L 639.344672 161.566306 
L 639.344672 161.566306 
" clip-path="url(#p21c06bfd7a)" style="fill: none; stroke: #000000; stroke-width: 1.5; stroke-linecap: square"/>
   </g>
   <g id="line2d_6">
    <path d="M 639.344672 161.566306 
L 639.30689 159.056409 
L 639.045669 156.544341 
L 638.5611 154.032116 
L 637.853452 151.521754 
L 636.923175 149.015273 
L 635.770895 146.514696 
L 634.397418 144.022042 
L 632.613104 141.264169 
L 630.558528 138.521325 
L 628.235563 135.796259 
L 625.646347 133.091706 
L 622.493566 130.143639 
L 619.0251 127.227282 
L 615.244894 124.346199 
L 611.157267 121.503921 
L 606.35295 118.451611 
L 601.194953 115.454106 
L 595.690369 112.51581 
L 589.846792 109.641049 
L 583.143087 106.603346 
L 576.061929 103.650474 
L 568.614862 100.787584 
L 560.814048 98.019689 
L 552.032214 95.150694 
L 542.871621 92.403385 
L 533.349707 89.783413 
L 523.484627 87.296195 
L 513.295213 84.946903 
L 502.040214 82.588442 
L 490.45999 80.399663 
L 478.580011 78.385911 
L 466.426441 76.552153 
L 454.026071 74.902965 
L 441.406267 73.442527 
L 428.594908 72.174602 
L 415.62032 71.102539 
L 402.51122 70.229253 
L 388.412641 69.519631 
L 374.22963 69.041443 
L 359.997998 68.79656 
L 345.753716 68.786268 
L 331.53282 69.011254 
L 317.371319 69.471614 
L 304.180777 70.116527 
L 291.103397 70.966978 
L 278.168364 72.021611 
L 265.404571 73.27861 
L 252.840558 74.735702 
L 240.50444 76.390159 
L 228.423854 78.238807 
L 216.625891 80.278028 
L 205.892821 82.349671 
L 195.450039 84.580167 
L 185.31801 86.965565 
L 175.516617 89.501604 
L 166.065117 92.183721 
L 157.618286 94.800812 
L 149.503536 97.535558 
L 141.734674 100.383637 
L 134.324937 103.34053 
L 127.286972 106.401525 
L 121.130783 109.315224 
L 115.31062 112.309467 
L 109.835 115.380145 
L 104.711954 118.523029 
L 100.332001 121.463732 
L 96.260076 124.458042 
L 92.501243 127.502466 
L 89.060197 130.593446 
L 86.211378 133.440781 
L 83.631732 136.320837 
L 81.323963 139.230814 
L 79.29051 142.167877 
L 77.533539 145.12916 
L 76.190228 147.81263 
L 75.073599 150.511244 
L 74.184661 153.222859 
L 73.524243 155.945317 
L 73.092993 158.676447 
L 72.891373 161.414069 
L 72.919662 164.155995 
L 73.177957 166.900029 
L 73.666169 169.64397 
L 74.384025 172.385615 
L 75.331069 175.122758 
L 76.506661 177.853195 
L 77.909975 180.574722 
L 79.540006 183.28514 
L 81.615603 186.281019 
L 83.967732 189.257477 
L 86.594227 192.21153 
L 89.492647 195.140212 
L 92.660282 198.040576 
L 96.452064 201.194781 
L 100.561654 204.307331 
L 104.984337 207.374414 
L 109.715019 210.392268 
L 115.220603 213.623965 
L 121.078628 216.787918 
L 127.280998 219.879472 
L 133.819119 222.89407 
L 140.683912 225.827251 
L 148.478327 228.907946 
L 156.632169 231.882606 
L 165.132081 234.746016 
L 173.96412 237.493139 
L 183.113775 240.11912 
L 193.305179 242.806279 
L 203.828014 245.341979 
L 214.662153 247.72094 
L 225.786855 249.938177 
L 237.180794 251.989007 
L 248.82211 253.86906 
L 261.544049 255.689303 
L 274.496217 257.304304 
L 287.650001 258.709955 
L 300.976317 259.902606 
L 314.445672 260.879072 
L 328.028229 261.636645 
L 341.693874 262.173099 
L 355.412284 262.486695 
L 369.152992 262.57619 
L 382.885456 262.440838 
L 396.579126 262.080393 
L 410.203512 261.495111 
L 423.728255 260.685751 
L 437.123189 259.653575 
L 450.358413 258.400346 
L 463.404355 256.928325 
L 475.384049 255.359461 
L 487.150079 253.605025 
L 498.67948 251.668007 
L 509.94973 249.551761 
L 520.938788 247.259996 
L 531.625144 244.796773 
L 541.987855 242.166493 
L 551.302798 239.578642 
L 560.305366 236.854873 
L 568.980293 233.999469 
L 577.312849 231.01694 
L 585.288864 227.91202 
L 592.323127 224.941585 
L 599.031787 221.875128 
L 605.405076 218.716843 
L 611.433699 215.471065 
L 616.649622 212.422719 
L 621.562097 209.30814 
L 626.165063 206.130949 
L 630.452825 202.894846 
L 634.420061 199.603612 
L 637.744331 196.566978 
L 640.796178 193.490906 
L 643.572435 190.378382 
L 646.070203 187.232434 
L 648.286859 184.056126 
L 650.039552 181.174055 
L 651.56112 178.272186 
L 652.850229 175.352821 
L 653.905731 172.418279 
L 654.726664 169.470894 
L 655.312252 166.513014 
L 655.66191 163.546999 
L 655.763738 161.566306 
L 655.763738 161.566306 
" clip-path="url(#p21c06bfd7a)" style="fill: none; stroke: #000000; stroke-width: 1.5; stroke-linecap: square"/>
   </g>
   <g id="line2d_7">
    <path d="M 655.763738 161.566306 
L 655.719386 158.592001 
L 655.438463 155.615896 
L 654.921075 152.640377 
L 654.167517 149.667834 
L 653.178275 146.700657 
L 651.954023 143.741236 
L 650.495625 140.791956 
L 648.80413 137.855199 
L 646.880776 134.93334 
L 644.473523 131.707181 
L 641.784008 128.505566 
L 638.814735 125.331707 
L 635.568483 122.18879 
L 632.048308 119.07998 
L 628.257537 116.00841 
L 623.779452 112.676395 
L 618.983463 109.397271 
L 613.875114 106.175061 
L 608.460323 103.013724 
L 602.211184 99.638993 
L 595.613505 96.346299 
L 588.676445 93.140493 
L 581.409654 90.026309 
L 573.823256 87.008362 
L 565.256281 83.852718 
L 556.340695 80.820799 
L 547.091142 77.917932 
L 537.522834 75.149234 
L 527.651526 72.51961 
L 517.493491 70.033741 
L 506.252648 67.522516 
L 494.720256 65.188413 
L 482.918432 63.036345 
L 470.869834 61.070879 
L 458.597615 59.29623 
L 446.125379 57.716252 
L 433.477135 56.334427 
L 420.677253 55.153859 
L 407.750415 54.177268 
L 394.721567 53.406982 
L 381.615874 52.844933 
L 368.458666 52.492654 
L 355.275397 52.35127 
L 342.091585 52.4215 
L 328.932775 52.703654 
L 315.824477 53.197628 
L 302.792128 53.902908 
L 289.861035 54.818568 
L 277.056326 55.943269 
L 264.402908 57.275263 
L 251.92541 58.812399 
L 239.648141 60.552117 
L 227.595039 62.491461 
L 215.789629 64.627081 
L 205.069412 66.782641 
L 194.600729 69.100928 
L 184.401245 71.578374 
L 174.48819 74.211137 
L 164.878326 76.995107 
L 155.587922 79.925912 
L 146.632723 82.998927 
L 138.677057 85.957567 
L 131.031483 89.029215 
L 123.707087 92.209689 
L 116.714504 95.494643 
L 110.063903 98.879573 
L 104.276225 102.066282 
L 98.791152 105.3294 
L 93.615428 108.665138 
L 88.755425 112.069614 
L 84.217147 115.538859 
L 80.375357 118.74551 
L 76.808048 121.999236 
L 73.518894 125.296879 
L 70.511299 128.635239 
L 67.788386 132.011067 
L 65.583527 135.078629 
L 63.613449 138.17145 
L 61.879843 141.287082 
L 60.384213 144.423055 
L 59.127873 147.57688 
L 58.111945 150.746047 
L 57.337359 153.928036 
L 56.804853 157.120309 
L 56.514972 160.320318 
L 56.468065 163.525506 
L 56.664288 166.733307 
L 57.103603 169.941151 
L 57.785776 173.146463 
L 58.71038 176.34667 
L 59.876791 179.539196 
L 61.284193 182.721469 
L 62.931577 185.890923 
L 64.817741 189.044998 
L 66.94129 192.181144 
L 69.30064 195.29682 
L 72.196531 198.731602 
L 75.378633 202.134552 
L 78.843953 205.502251 
L 82.58922 208.831314 
L 86.610883 212.118386 
L 90.905115 215.360152 
L 95.93869 218.869856 
L 101.291282 222.316476 
L 106.956679 225.69578 
L 112.92829 229.003612 
L 119.199153 232.235894 
L 126.372779 235.671167 
L 133.883832 239.006715 
L 141.72184 242.237611 
L 149.875858 245.359065 
L 158.334483 248.366437 
L 167.085872 251.255244 
L 176.882681 254.245974 
L 186.992541 257.087209 
L 197.398783 259.773916 
L 208.084229 262.30131 
L 219.031224 264.664867 
L 230.221665 266.860329 
L 241.637028 268.883711 
L 253.258399 270.731308 
L 265.982001 272.52053 
L 278.897683 274.098042 
L 291.980568 275.460364 
L 305.205435 276.604427 
L 318.546768 277.527578 
L 331.978807 278.227592 
L 345.475599 278.702671 
L 359.011043 278.951451 
L 372.558946 278.973005 
L 386.09307 278.766847 
L 399.587184 278.332932 
L 413.015115 277.671656 
L 426.350801 276.78386 
L 439.568335 275.670826 
L 452.642024 274.334276 
L 465.546431 272.776371 
L 477.355551 271.133802 
L 488.977198 269.305013 
L 500.391828 267.29273 
L 511.580232 265.099991 
L 522.523563 262.730142 
L 533.203371 260.186833 
L 543.601634 257.474009 
L 553.700789 254.595908 
L 562.742828 251.796411 
L 571.502408 248.863702 
L 579.966882 245.801745 
L 588.124013 242.614695 
L 595.961996 239.306891 
L 603.469472 235.882852 
L 610.051669 232.646045 
L 616.338949 229.319248 
L 622.32362 225.906311 
L 627.998348 222.411196 
L 633.356165 218.837967 
L 637.94635 215.525296 
L 642.264494 212.154706 
L 646.306186 208.729458 
L 650.067285 205.252868 
L 653.543925 201.72831 
L 656.732519 198.15921 
L 659.353239 194.911806 
L 661.735752 191.6337 
L 663.878038 188.327485 
L 665.778267 184.995778 
L 667.434804 181.64122 
L 668.846206 178.266475 
L 670.011226 174.874224 
L 670.928817 171.467169 
L 671.598124 168.048023 
L 672.018495 164.619514 
L 672.182803 161.566306 
L 672.182803 161.566306 
" clip-path="url(#p21c06bfd7a)" style="fill: none; stroke: #000000; stroke-width: 1.5; stroke-linecap: square"/>
   </g>
   <g id="line2d_8">
    <path d="M 672.182803 161.566306 
L 672.131883 158.127592 
L 671.831257 154.68745 
L 671.281049 151.248638 
L 670.481581 147.813915 
L 669.433375 144.386041 
L 668.137151 140.967775 
L 666.593831 137.561869 
L 664.804533 134.171072 
L 662.770574 130.798121 
L 660.493465 127.445742 
L 657.974916 124.116651 
L 655.216827 120.813546 
L 651.873899 117.177167 
L 648.240984 113.579826 
L 644.321522 110.025139 
L 640.119237 106.516684 
L 635.638133 103.057996 
L 630.882493 99.652568 
L 625.339647 95.97222 
L 619.476573 92.364994 
L 613.300098 88.835318 
L 606.817429 85.387537 
L 600.036142 82.025901 
L 592.964175 78.754567 
L 584.927534 75.293585 
L 576.566061 71.950004 
L 567.891452 68.72878 
L 558.915859 65.634701 
L 549.651867 62.672383 
L 540.112481 59.846261 
L 530.311105 57.160581 
L 519.413299 54.414275 
L 508.242212 51.842436 
L 496.816318 49.449667 
L 485.154532 47.240282 
L 473.276172 45.218293 
L 461.200934 43.387405 
L 448.948856 41.751011 
L 436.540284 40.312182 
L 423.995838 39.073663 
L 411.336383 38.03787 
L 398.582987 37.206884 
L 385.756889 36.582442 
L 372.879466 36.165944 
L 359.972194 35.958439 
L 347.056612 35.960632 
L 334.15429 36.172873 
L 321.28679 36.595165 
L 308.475628 37.227158 
L 295.742242 38.068148 
L 283.107956 39.117083 
L 270.593941 40.372559 
L 258.221181 41.832824 
L 246.010439 43.495779 
L 233.982222 45.358984 
L 222.156744 47.419658 
L 210.553896 49.674685 
L 199.193209 52.120618 
L 188.093823 54.753684 
L 178.096353 57.346768 
L 168.35186 60.092364 
L 158.874371 62.986793 
L 149.67754 66.026157 
L 140.774631 69.206347 
L 132.178498 72.523046 
L 123.901566 75.971735 
L 116.605026 79.24496 
L 109.595659 82.621364 
L 102.88201 86.097046 
L 96.472276 89.667984 
L 90.374295 93.330032 
L 84.595537 97.078932 
L 79.625108 100.558715 
L 74.929418 104.103308 
L 70.513248 107.709284 
L 66.381108 111.373152 
L 62.537229 115.091358 
L 58.985558 118.860289 
L 56.041923 122.292667 
L 53.340413 125.760455 
L 50.883302 129.260911 
L 48.672672 132.791266 
L 46.710406 136.348723 
L 44.99819 139.93046 
L 43.53751 143.533633 
L 42.329652 147.155376 
L 41.375699 150.792806 
L 40.741614 154.036903 
L 40.309328 157.28906 
L 40.079198 160.547223 
L 40.051453 163.809335 
L 40.226193 167.073332 
L 40.60339 170.337148 
L 41.18289 173.598716 
L 41.964408 176.855966 
L 43.084575 180.512637 
L 44.459117 184.158284 
L 46.087053 187.789972 
L 47.967196 191.404773 
L 50.098156 194.999767 
L 52.478344 198.572051 
L 55.105969 202.118733 
L 57.979041 205.636941 
L 61.095372 209.12382 
L 64.840364 212.957945 
L 68.87918 216.746048 
L 73.20798 220.484323 
L 77.822633 224.169004 
L 82.718724 227.796378 
L 87.891559 231.36278 
L 93.336165 234.864603 
L 99.632863 238.637788 
L 106.244707 242.323908 
L 113.163965 245.918427 
L 120.382535 249.416913 
L 127.891952 252.815042 
L 135.683399 256.108606 
L 144.49404 259.577528 
L 153.617071 262.912006 
L 163.039698 266.107084 
L 172.748693 269.158 
L 182.730412 272.060188 
L 192.970815 274.80929 
L 203.455486 277.401156 
L 214.16965 279.831858 
L 225.098198 282.097691 
L 237.16149 284.362268 
L 249.438284 286.42517 
L 261.908213 288.282621 
L 274.550576 289.931184 
L 287.344369 291.367764 
L 300.268321 292.589617 
L 313.30093 293.594355 
L 326.420498 294.37995 
L 339.605168 294.944735 
L 352.83296 295.287413 
L 366.081805 295.407056 
L 379.329589 295.303108 
L 392.55418 294.975385 
L 405.733473 294.424081 
L 418.845425 293.64976 
L 431.868089 292.653365 
L 444.779653 291.436208 
L 457.558478 289.999977 
L 470.18313 288.346727 
L 482.63242 286.478879 
L 494.885438 284.39922 
L 506.003893 282.294249 
L 516.92162 280.014215 
L 527.62296 277.562115 
L 538.092551 274.941193 
L 548.31535 272.154939 
L 558.276659 269.207085 
L 567.962143 266.101598 
L 577.357848 262.842676 
L 585.704438 259.724316 
L 593.786022 256.484312 
L 601.592788 253.126381 
L 609.115248 249.654391 
L 616.344249 246.072348 
L 623.270981 242.384397 
L 629.886995 238.594816 
L 635.625111 235.065253 
L 641.093946 231.458734 
L 646.287957 227.778737 
L 651.201875 224.028814 
L 655.830701 220.212595 
L 660.169718 216.333778 
L 664.214491 212.396126 
L 667.599776 208.805099 
L 670.740543 205.172347 
L 673.634167 201.500737 
L 676.278219 197.793172 
L 678.670471 194.052585 
L 680.808894 190.28194 
L 682.691662 186.484228 
L 684.317151 182.662464 
L 685.683944 178.819688 
L 686.680711 175.388718 
L 687.471405 171.945721 
L 688.055442 168.492867 
L 688.43237 165.032333 
L 688.601869 161.566306 
L 688.601869 161.566306 
" clip-path="url(#p21c06bfd7a)" style="fill: none; stroke: #000000; stroke-width: 1.5; stroke-linecap: square"/>
   </g>
   <g id="line2d_9">
    <path d="M 672.182803 161.566306 
L 672.131883 158.127592 
L 671.831257 154.68745 
L 671.281049 151.248638 
L 670.481581 147.813915 
L 669.433375 144.386041 
L 668.137151 140.967775 
L 666.593831 137.561869 
L 664.804533 134.171072 
L 662.770574 130.798121 
L 660.493465 127.445742 
L 657.974916 124.116651 
L 655.216827 120.813546 
L 651.873899 117.177167 
L 648.240984 113.579826 
L 644.321522 110.025139 
L 640.119237 106.516684 
L 635.638133 103.057996 
L 630.882493 99.652568 
L 625.339647 95.97222 
L 619.476573 92.364994 
L 613.300098 88.835318 
L 606.817429 85.387537 
L 600.036142 82.025901 
L 592.964175 78.754567 
L 584.927534 75.293585 
L 576.566061 71.950004 
L 567.891452 68.72878 
L 558.915859 65.634701 
L 549.651867 62.672383 
L 540.112481 59.846261 
L 530.311105 57.160581 
L 519.413299 54.414275 
L 508.242212 51.842436 
L 496.816318 49.449667 
L 485.154532 47.240282 
L 473.276172 45.218293 
L 461.200934 43.387405 
L 448.948856 41.751011 
L 436.540284 40.312182 
L 423.995838 39.073663 
L 411.336383 38.03787 
L 398.582987 37.206884 
L 385.756889 36.582442 
L 372.879466 36.165944 
L 359.972194 35.958439 
L 347.056612 35.960632 
L 334.15429 36.172873 
L 321.28679 36.595165 
L 308.475628 37.227158 
L 295.742242 38.068148 
L 283.107956 39.117083 
L 270.593941 40.372559 
L 258.221181 41.832824 
L 246.010439 43.495779 
L 233.982222 45.358984 
L 222.156744 47.419658 
L 210.553896 49.674685 
L 199.193209 52.120618 
L 188.093823 54.753684 
L 178.096353 57.346768 
L 168.35186 60.092364 
L 158.874371 62.986793 
L 149.67754 66.026157 
L 140.774631 69.206347 
L 132.178498 72.523046 
L 123.901566 75.971735 
L 116.605026 79.24496 
L 109.595659 82.621364 
L 102.88201 86.097046 
L 96.472276 89.667984 
L 90.374295 93.330032 
L 84.595537 97.078932 
L 79.625108 100.558715 
L 74.929418 104.103308 
L 70.513248 107.709284 
L 66.381108 111.373152 
L 62.537229 115.091358 
L 58.985558 118.860289 
L 56.041923 122.292667 
L 53.340413 125.760455 
L 50.883302 129.260911 
L 48.672672 132.791266 
L 46.710406 136.348723 
L 44.99819 139.93046 
L 43.53751 143.533633 
L 42.329652 147.155376 
L 41.375699 150.792806 
L 40.741614 154.036903 
L 40.309328 157.28906 
L 40.079198 160.547223 
L 40.051453 163.809335 
L 40.226193 167.073332 
L 40.60339 170.337148 
L 41.18289 173.598716 
L 41.964408 176.855966 
L 43.084575 180.512637 
L 44.459117 184.158284 
L 46.087053 187.789972 
L 47.967196 191.404773 
L 50.098156 194.999767 
L 52.478344 198.572051 
L 55.105969 202.118733 
L 57.979041 205.636941 
L 61.095372 209.12382 
L 64.840364 212.957945 
L 68.87918 216.746048 
L 73.20798 220.484323 
L 77.822633 224.169004 
L 82.718724 227.796378 
L 87.891559 231.36278 
L 93.336165 234.864603 
L 99.632863 238.637788 
L 106.244707 242.323908 
L 113.163965 245.918427 
L 120.382535 249.416913 
L 127.891952 252.815042 
L 135.683399 256.108606 
L 144.49404 259.577528 
L 153.617071 262.912006 
L 163.039698 266.107084 
L 172.748693 269.158 
L 182.730412 272.060188 
L 192.970815 274.80929 
L 203.455486 277.401156 
L 214.16965 279.831858 
L 225.098198 282.097691 
L 237.16149 284.362268 
L 249.438284 286.42517 
L 261.908213 288.282621 
L 274.550576 289.931184 
L 287.344369 291.367764 
L 300.268321 292.589617 
L 313.30093 293.594355 
L 326.420498 294.37995 
L 339.605168 294.944735 
L 352.83296 295.287413 
L 366.081805 295.407056 
L 379.329589 295.303108 
L 392.55418 294.975385 
L 405.733473 294.424081 
L 418.845425 293.64976 
L 431.868089 292.653365 
L 444.779653 291.436208 
L 457.558478 289.999977 
L 470.18313 288.346727 
L 482.63242 286.478879 
L 494.885438 284.39922 
L 506.003893 282.294249 
L 516.92162 280.014215 
L 527.62296 277.562115 
L 538.092551 274.941193 
L 548.31535 272.154939 
L 558.276659 269.207085 
L 567.962143 266.101598 
L 577.357848 262.842676 
L 585.704438 259.724316 
L 593.786022 256.484312 
L 601.592788 253.126381 
L 609.115248 249.654391 
L 616.344249 246.072348 
L 623.270981 242.384397 
L 629.886995 238.594816 
L 635.625111 235.065253 
L 641.093946 231.458734 
L 646.287957 227.778737 
L 651.201875 224.028814 
L 655.830701 220.212595 
L 660.169718 216.333778 
L 664.214491 212.396126 
L 667.599776 208.805099 
L 670.740543 205.172347 
L 673.634167 201.500737 
L 676.278219 197.793172 
L 678.670471 194.052585 
L 680.808894 190.28194 
L 682.691662 186.484228 
L 684.317151 182.662464 
L 685.683944 178.819688 
L 686.680711 175.388718 
L 687.471405 171.945721 
L 688.055442 168.492867 
L 688.43237 165.032333 
L 688.601869 161.566306 
L 688.601869 161.566306 
" clip-path="url(#p21c06bfd7a)" style="fill: none; stroke: #000000; stroke-width: 1.5; stroke-linecap: square"/>
   </g>
   <g id="legend_1">
    <g id="patch_2">
     <path d="M 710.44 20.2 
L 714.44 20.2 
Q 716.44 20.2 716.44 18.2 
L 716.44 14.2 
Q 716.44 12.2 714.44 12.2 
L 710.44 12.2 
Q 708.44 12.2 708.44 14.2 
L 708.44 18.2 
Q 708.44 20.2 710.44 20.2 
z
" style="fill: #ffffff; opacity: 0.8; stroke: #cccccc; stroke-linejoin: miter"/>
    </g>
   </g>
  </g>
 </g>
 <defs>
  <clipPath id="p21c06bfd7a">
   <rect x="7.2" y="7.2" width="714.24" height="325.149954"/>
  </clipPath>
 </defs>
</svg>
